<svg width="80" height="40" viewBox="0 0 80 40" fill="none" xmlns="http://www.w3.org/2000/svg">
<g clip-path="url(#clip0_16_11189)">
<path d="M2.24858 23.7738H3.4626L5.57907 29.806H4.47607L4.1466 28.8735H1.56815L1.24943 29.7914H0.146423L2.24858 23.7738ZM3.80281 27.89L2.98272 25.4713C2.93258 25.3183 2.89319 25.1908 2.85738 25.0378C2.83246 25.1849 2.78914 25.3281 2.72845 25.464L1.90478 27.89H3.80281Z" fill="#3F4B76"/>
<path d="M7.19483 23.7738H6.15629V29.806H7.19483V23.7738Z" fill="#3F4B76"/>
<path d="M8.57318 26.0942H7.85695V25.0961H8.57318V23.7738H9.61889V25.0997H10.3566V26.0978H9.61889V28.8115H10.3351V29.8096H8.57318V26.0942Z" fill="#3F4B76"/>
<path d="M10.8433 27.4478C10.8279 27.1307 10.8753 26.8136 10.9826 26.5155C11.09 26.2173 11.2551 25.9441 11.4682 25.7121C11.6813 25.4801 11.938 25.2939 12.2231 25.1647C12.5083 25.0355 12.816 24.9659 13.1281 24.9599C13.49 24.9501 13.847 25.0461 14.1568 25.2366C14.4666 25.4271 14.7161 25.704 14.8757 26.0345H14.9116V25.0983H15.9322V29.8046H14.9116V28.8721H14.8757C14.7154 29.2001 14.4649 29.4738 14.1548 29.66C13.8446 29.8462 13.488 29.9369 13.1281 29.9212C12.8174 29.9146 12.5111 29.8451 12.2272 29.7166C11.9433 29.5882 11.6874 29.4033 11.4746 29.173C11.2618 28.9426 11.0964 28.6714 10.988 28.3751C10.8796 28.0789 10.8304 27.7636 10.8433 27.4478ZM14.7576 27.4478C14.7484 27.168 14.6588 26.897 14.4998 26.6685C14.3408 26.4399 14.1194 26.2638 13.863 26.162C13.6066 26.0601 13.3264 26.037 13.0572 26.0954C12.788 26.1538 12.5416 26.2913 12.3484 26.4907C12.1552 26.6902 12.0237 26.9429 11.9703 27.2175C11.9169 27.4922 11.9438 27.7768 12.0477 28.036C12.1517 28.2953 12.3281 28.5178 12.5551 28.6761C12.7822 28.8345 13.0499 28.9216 13.3251 28.9267C13.517 28.9341 13.7083 28.9007 13.8868 28.8287C14.0653 28.7567 14.2271 28.6476 14.3618 28.5085C14.4966 28.3693 14.6014 28.2032 14.6695 28.0205C14.7377 27.8379 14.7677 27.6429 14.7576 27.4478Z" fill="#3F4B76"/>
<path d="M24.3411 26.8329V29.8053H23.3062V27.117C23.3062 26.3885 22.9803 25.9587 22.3357 25.9587C22.1784 25.9575 22.0226 25.9898 21.8784 26.0535C21.7341 26.1173 21.6045 26.2109 21.498 26.3286C21.3914 26.4463 21.3102 26.5853 21.2596 26.7367C21.209 26.8882 21.19 27.0487 21.204 27.2081V29.8053H20.1834V27.0988C20.1834 26.4504 19.8826 25.9404 19.2129 25.9404C19.0571 25.9418 18.9033 25.976 18.7612 26.0408C18.6191 26.1057 18.4917 26.1997 18.3871 26.3171C18.2824 26.4345 18.2028 26.5726 18.1533 26.7228C18.1037 26.873 18.0853 27.0321 18.0991 27.1899V29.8053H17.0642V25.0699H18.0669V25.8967H18.1099C18.2429 25.611 18.4543 25.3706 18.7187 25.2043C18.983 25.038 19.289 24.953 19.5997 24.9596C19.9104 24.9661 20.2126 25.0639 20.47 25.2412C20.7273 25.4184 20.9287 25.6676 21.05 25.9587H21.136C21.2707 25.6524 21.4924 25.394 21.7725 25.2168C22.0527 25.0396 22.3785 24.9517 22.7081 24.9642C23.7896 24.9533 24.3411 25.8202 24.3411 26.8329Z" fill="#3F4B76"/>
<path d="M25.0539 27.4479C25.0385 27.1307 25.0858 26.8137 25.1932 26.5155C25.3005 26.2174 25.4656 25.9442 25.6787 25.7121C25.8918 25.4801 26.1485 25.294 26.4337 25.1648C26.7188 25.0356 27.0266 24.9659 27.3387 24.9599C27.701 24.9499 28.0587 25.0457 28.3691 25.2362C28.6795 25.4267 28.9296 25.7038 29.0899 26.0345H29.1221V25.0984H30.1427V29.8046H29.1221V28.8721H29.0899C28.9289 29.2004 28.6778 29.4743 28.367 29.6605C28.0562 29.8467 27.699 29.9372 27.3387 29.9212C27.028 29.9147 26.7217 29.8451 26.4377 29.7167C26.1538 29.5882 25.8979 29.4034 25.6851 29.173C25.4724 28.9427 25.3069 28.6714 25.1985 28.3752C25.0901 28.0789 25.0409 27.7637 25.0539 27.4479ZM28.9717 27.4479C28.9625 27.168 28.8729 26.8971 28.7139 26.6685C28.5549 26.44 28.3335 26.2639 28.0771 26.162C27.8207 26.0601 27.5405 26.037 27.2713 26.0954C27.0021 26.1539 26.7557 26.2913 26.5625 26.4908C26.3693 26.6902 26.2379 26.9429 26.1844 27.2176C26.131 27.4922 26.1579 27.7768 26.2619 28.0361C26.3658 28.2953 26.5422 28.5179 26.7693 28.6762C26.9963 28.8345 27.264 28.9216 27.5392 28.9268C27.7311 28.9341 27.9224 28.9007 28.1009 28.8287C28.2794 28.7567 28.4412 28.6476 28.576 28.5085C28.7107 28.3694 28.8155 28.2032 28.8837 28.0206C28.9518 27.838 28.9818 27.6429 28.9717 27.4479Z" fill="#3F4B76"/>
<path d="M32.4846 29.0986L30.6546 25.0917H31.7935L33.0755 27.8674L34.2143 25.0917H35.3532L32.6673 31.1458H31.5141L32.4846 29.0986Z" fill="#3F4B76"/>
<path d="M37.0655 29.0986L35.2319 25.0917H36.3708L37.6528 27.8674L38.7916 25.0917H39.9269L37.241 31.1458H36.0914L37.0655 29.0986Z" fill="#3F4B76"/>
<path d="M40.3208 27.9762V25.0985H41.3593V28.0345C41.3593 28.2876 41.4582 28.5303 41.6341 28.7093C41.8101 28.8883 42.0487 28.9888 42.2976 28.9888C42.5464 28.9888 42.7851 28.8883 42.961 28.7093C43.137 28.5303 43.2358 28.2876 43.2358 28.0345V25.0985H44.2887V27.9762C44.2887 28.5114 44.0797 29.0247 43.7076 29.4031C43.3356 29.7816 42.8309 29.9942 42.3047 29.9942C41.7786 29.9942 41.2739 29.7816 40.9019 29.4031C40.5298 29.0247 40.3208 28.5114 40.3208 27.9762Z" fill="#3F4B76"/>
<path d="M44.9655 28.9198L47.2109 26.075H45.0622V25.0951H48.518V26.0604L46.3407 28.8251H48.5825V29.805H44.9655V28.9198Z" fill="#3F4B76"/>
<path d="M48.5717 14.0353H47.551V20.0712H48.586L48.5717 14.0353Z" fill="#3F4B76"/>
<path d="M46.2654 20.0712H42.6842V19.0767H45.2448V14.0353H46.2833L46.2654 20.0712Z" fill="#3F4B76"/>
<path d="M22.1249 16.3859H23.1706V22.4253H20.5313V21.4892H22.1249V16.3859Z" fill="#3F4B76"/>
<path d="M22.1234 16.3943H23.1619V19.0789H30.5571V15.3635H31.592V19.0789H41.7662V15.3635H42.8047V20.0734H22.1234V16.3943Z" fill="#3F4B76"/>
<path d="M36.8283 20.0662C36.1825 20.0662 35.5631 19.8052 35.1064 19.3407C34.6497 18.8762 34.3931 18.2462 34.3931 17.5892C34.3931 16.9323 34.6497 16.3023 35.1064 15.8377C35.5631 15.3732 36.1825 15.1123 36.8283 15.1123C37.1502 15.1089 37.4696 15.1705 37.7679 15.2934C38.0663 15.4164 38.3377 15.5983 38.5665 15.8287C38.7953 16.059 38.9769 16.3332 39.1009 16.6354C39.2248 16.9376 39.2886 17.2618 39.2886 17.5892V20.0662H36.8283ZM38.2608 17.5892C38.2608 17.3011 38.1768 17.0193 38.0194 16.7797C37.862 16.5401 37.6383 16.3534 37.3765 16.2431C37.1148 16.1328 36.8267 16.104 36.5489 16.1602C36.271 16.2164 36.0158 16.3552 35.8154 16.5589C35.6151 16.7627 35.4787 17.0223 35.4234 17.305C35.3681 17.5876 35.3965 17.8806 35.5049 18.1468C35.6133 18.4131 35.7969 18.6406 36.0325 18.8007C36.2681 18.9608 36.545 19.0463 36.8283 19.0463H38.2608V17.5892Z" fill="#3F4B76"/>
<path d="M32.4673 21.4266H31.4359V22.4903H32.4816L32.4673 21.4266Z" fill="#3F4B76"/>
<path d="M30.7445 21.4266H29.7023V22.4903H30.7445V21.4266Z" fill="#3F4B76"/>
<path d="M43.7329 13.2388H42.6908V14.3024H43.7329V13.2388Z" fill="#3F4B76"/>
<path d="M42.0145 13.2388H40.9688V14.3024H42.0145V13.2388Z" fill="#3F4B76"/>
<path d="M23.1727 14.0353H22.1234V15.099H23.1691L23.1727 14.0353Z" fill="#3F4B76"/>
<path d="M54.2188 39.2119H66.3232L79.9997 17.2724H67.8953L54.2188 39.2119Z" fill="#3F4B76"/>
<path d="M67.8952 6.9599H57.7533V17.2721H67.8952V6.9599Z" fill="#0095A4"/>
<path d="M57.7529 0H50.9129V6.96104H57.7529V0Z" fill="#55B8CC"/>
<path d="M3.91287 34.1267H4.21727V34.7495H4.80816V33.9737H5.09824V34.7678H5.68555V33.7296H5.97563V35.0482H3.91287V34.1267Z" fill="#3D4975"/>
<path d="M16.4869 34.5364H16.7805V34.9917C16.7805 35.098 16.822 35.1999 16.8959 35.275C16.9698 35.3502 17.07 35.3924 17.1745 35.3924C17.2789 35.3924 17.3791 35.3502 17.453 35.275C17.5269 35.1999 17.5684 35.098 17.5684 34.9917V34.5364H17.8621V34.9917C17.8621 35.1772 17.7896 35.3551 17.6607 35.4862C17.5317 35.6174 17.3568 35.6911 17.1745 35.6911C16.9921 35.6911 16.8172 35.6174 16.6883 35.4862C16.5593 35.3551 16.4869 35.1772 16.4869 34.9917V34.5364Z" fill="#3D4975"/>
<path d="M44.2119 35.0259H43.0444V34.4467H43.3345V34.7454H43.9218V33.7109H44.2119V35.0259Z" fill="#3D4975"/>
<path d="M36.0911 35.0255H35.801V33.339H36.0911V35.0255Z" fill="#3D4975"/>
<path d="M48.5171 35.0255H48.227V33.339H48.5171V35.0255Z" fill="#3D4975"/>
<path d="M46.3658 35.0255H46.0757V33.339H46.3658V35.0255Z" fill="#3D4975"/>
<path d="M35.4324 35.0257H34.4655V34.7453H35.1423V33.3356H35.4324V35.0257Z" fill="#3D4975"/>
<path d="M27.181 33.9946H27.4746V35.6847H26.7369V35.4298H27.181V33.9946Z" fill="#3D4975"/>
<path d="M15.574 34.7452H15.8677V35.685H15.13V35.4301H15.574V34.7452Z" fill="#3D4975"/>
<path d="M27.1842 33.9987H27.4743V34.7491H31.0555V33.7109H31.3456V34.7491H34.2105V33.7109H34.5006V35.0259H27.1842V33.9987Z" fill="#3D4975"/>
<path d="M1.84708 33.9987H2.13716V34.7491H2.71731V33.7109H3.00738V34.7491H3.91342V33.9732H4.21782V35.0441H1.84708V33.9987Z" fill="#3D4975"/>
<path d="M32.7929 35.026C32.6118 35.026 32.4379 34.9533 32.3092 34.8237C32.1805 34.6941 32.1072 34.5181 32.1053 34.3339C32.1053 34.1484 32.1777 33.9705 32.3067 33.8394C32.4356 33.7082 32.6105 33.6345 32.7929 33.6345C32.9752 33.6345 33.1501 33.7082 33.2791 33.8394C33.408 33.9705 33.4805 34.1484 33.4805 34.3339V35.026H32.7929ZM33.1904 34.3375C33.1934 34.2831 33.1853 34.2287 33.1665 34.1777C33.1477 34.1266 33.1187 34.0801 33.0813 34.0411C33.044 34.002 32.999 33.9713 32.9494 33.9509C32.8997 33.9304 32.8464 33.9207 32.7929 33.9223C32.7395 33.9206 32.6863 33.9304 32.6369 33.9509C32.5874 33.9713 32.5427 34.0021 32.5056 34.0412C32.4685 34.0803 32.4398 34.1269 32.4215 34.1779C32.4031 34.229 32.3954 34.2833 32.399 34.3375C32.397 34.3912 32.4058 34.4447 32.4248 34.4948C32.4437 34.5449 32.4725 34.5906 32.5093 34.6291C32.5462 34.6676 32.5903 34.698 32.639 34.7187C32.6878 34.7393 32.7401 34.7497 32.7929 34.7492H33.1904V34.3375Z" fill="#3D4975"/>
<path d="M42.6449 35.026C42.4637 35.026 42.2899 34.9533 42.1612 34.8237C42.0324 34.6941 41.9592 34.5181 41.9573 34.3339C41.9573 34.1484 42.0297 33.9705 42.1587 33.8394C42.2876 33.7082 42.4625 33.6345 42.6449 33.6345C42.8272 33.6345 43.0021 33.7082 43.1311 33.8394C43.26 33.9705 43.3325 34.1484 43.3325 34.3339V35.026H42.6449ZM43.0424 34.3339C43.041 34.2543 43.0165 34.1768 42.9719 34.1113C42.9274 34.0458 42.8648 33.9951 42.7921 33.9656C42.7193 33.9361 42.6396 33.9291 42.563 33.9455C42.4864 33.9619 42.4162 34.001 42.3613 34.0578C42.3065 34.1147 42.2693 34.1867 42.2545 34.2649C42.2398 34.3432 42.2481 34.4241 42.2783 34.4976C42.3086 34.571 42.3596 34.6337 42.4248 34.6778C42.49 34.722 42.5666 34.7455 42.6449 34.7455H43.0424V34.3339Z" fill="#3D4975"/>
<path d="M25.5688 35.0263H24.4014V34.4471H24.6914V34.7458H25.2787V33.3288H25.5688V35.0263Z" fill="#3D4975"/>
<path d="M22.1024 35.0263H18.3421V34.4471H18.6322V34.7458H21.8123V33.3288H22.1024V35.0263Z" fill="#3D4975"/>
<path d="M22.4425 33.3322H22.7326V34.7492H24.5231V35.026H22.4425V33.3322Z" fill="#3D4975"/>
<path d="M26.3033 35.0255H26.0132V33.339H26.3033V35.0255Z" fill="#3D4975"/>
<path d="M24.0051 35.026C23.8239 35.026 23.6501 34.9533 23.5214 34.8237C23.3926 34.6941 23.3194 34.5181 23.3175 34.3339C23.3175 34.1484 23.3899 33.9705 23.5189 33.8394C23.6478 33.7082 23.8227 33.6345 24.0051 33.6345C24.1874 33.6345 24.3623 33.7082 24.4913 33.8394C24.6202 33.9705 24.6926 34.1484 24.6926 34.3339V35.026H24.0051ZM24.4026 34.3339C24.4056 34.2795 24.3974 34.2251 24.3787 34.174C24.3599 34.123 24.3309 34.0765 24.2935 34.0374C24.2561 33.9984 24.2112 33.9677 24.1616 33.9472C24.1119 33.9268 24.0586 33.917 24.0051 33.9186C23.9517 33.917 23.8985 33.9267 23.849 33.9472C23.7996 33.9677 23.7548 33.9985 23.7177 34.0376C23.6806 34.0767 23.652 34.1233 23.6336 34.1743C23.6153 34.2253 23.6076 34.2797 23.6111 34.3339C23.6092 34.3876 23.618 34.4411 23.6369 34.4912C23.6559 34.5413 23.6847 34.587 23.7215 34.6254C23.7583 34.6639 23.8024 34.6944 23.8512 34.715C23.8999 34.7357 23.9523 34.746 24.0051 34.7455H24.4026V34.3339Z" fill="#3D4975"/>
<path d="M13.3175 35.0263H12.1464V34.4471H12.4544V34.7458H13.0417V33.3288H13.3354L13.3175 35.0263Z" fill="#3D4975"/>
<path d="M6.36682 33.3322H6.65689V34.7492H12.2543V35.026H6.36682V33.3322Z" fill="#3D4975"/>
<path d="M14.0483 35.0255H13.7583V33.339H14.0483V35.0255Z" fill="#3D4975"/>
<path d="M11.7386 35.0251C11.5575 35.0251 11.3837 34.9525 11.2549 34.8229C11.1262 34.6933 11.0529 34.5173 11.051 34.333C11.0513 34.2393 11.0697 34.1465 11.1051 34.06C11.1406 33.9734 11.1925 33.8949 11.2579 33.8287C11.3232 33.7626 11.4007 33.7102 11.486 33.6746C11.5712 33.6389 11.6626 33.6207 11.7547 33.6209C11.8469 33.6212 11.9381 33.6399 12.0232 33.676C12.1083 33.7121 12.1855 33.7648 12.2505 33.8313C12.3155 33.8978 12.3671 33.9766 12.4021 34.0633C12.4372 34.15 12.4551 34.2429 12.4549 34.3367V35.0288L11.7386 35.0251ZM12.1361 34.333C12.1386 34.2788 12.1301 34.2246 12.1111 34.1738C12.0921 34.123 12.0631 34.0767 12.0259 34.0378C11.9886 33.9988 11.9439 33.9681 11.8945 33.9475C11.8451 33.9268 11.792 33.9167 11.7386 33.9178C11.6858 33.9176 11.6335 33.9286 11.585 33.95C11.5366 33.9714 11.493 34.0027 11.457 34.042C11.421 34.0814 11.3934 34.1279 11.3759 34.1786C11.3585 34.2293 11.3515 34.2831 11.3554 34.3367C11.3535 34.3893 11.362 34.4417 11.3803 34.4909C11.3987 34.54 11.4265 34.585 11.4623 34.623C11.498 34.6611 11.5409 34.6914 11.5883 34.7123C11.6358 34.7332 11.6869 34.7442 11.7386 34.7447H12.1397L12.1361 34.333Z" fill="#3D4975"/>
<path d="M15.1794 35.026C14.9983 35.026 14.8245 34.9533 14.6957 34.8237C14.567 34.6941 14.4937 34.5181 14.4918 34.3339C14.4918 34.1484 14.5643 33.9705 14.6932 33.8394C14.8222 33.7082 14.997 33.6345 15.1794 33.6345C15.3618 33.6345 15.5367 33.7082 15.6656 33.8394C15.7945 33.9705 15.867 34.1484 15.867 34.3339V35.026H15.1794ZM15.5769 34.3339C15.5794 34.2793 15.5708 34.2248 15.5516 34.1738C15.5324 34.1227 15.5031 34.0763 15.4654 34.0373C15.4278 33.9983 15.3826 33.9676 15.3328 33.9472C15.283 33.9268 15.2295 33.9171 15.1758 33.9186C15.1224 33.9175 15.0693 33.9277 15.02 33.9486C14.9707 33.9695 14.9262 34.0007 14.8895 34.0402C14.8527 34.0796 14.8245 34.1265 14.8066 34.1777C14.7886 34.2289 14.7815 34.2833 14.7855 34.3375C14.783 34.391 14.7914 34.4445 14.8099 34.4946C14.8285 34.5447 14.8569 34.5904 14.8935 34.6289C14.93 34.6674 14.9739 34.698 15.0224 34.7187C15.071 34.7393 15.1232 34.7497 15.1758 34.7492H15.5769V34.3339Z" fill="#3D4975"/>
<path d="M46.2221 35.0247V34.7442H47.6939V34.3362H46.8953V34.0557H47.9876V35.0392L46.2221 35.0247Z" fill="#3D4975"/>
<path d="M44.5856 35.0259V34.7454H45.4021V33.9914H44.6035V33.7109H45.6778V35.0259H44.5856Z" fill="#3D4975"/>
<path d="M9.23195 35.0259V34.7454H10.0556V33.9914H9.23195V33.7109H10.3063V35.0259H9.23195Z" fill="#3D4975"/>
<path d="M36.6678 35.0259V33.7109H37.7422V33.9951H36.9722V34.7454H37.7959V35.0259H36.6678Z" fill="#3D4975"/>
<path d="M17.5724 34.5378V33.7109H18.3316V33.9951H17.8625V34.5378H17.5724Z" fill="#3D4975"/>
<path d="M18.3392 35.0259V33.9914H17.8701V33.7109H18.6329V35.0259H18.3392Z" fill="#3D4975"/>
<path d="M-0.000438157 34.5364H0.278894V34.9917C0.276954 35.0454 0.285736 35.0989 0.304708 35.149C0.32368 35.1991 0.352449 35.2448 0.389273 35.2832C0.426097 35.3217 0.470212 35.3522 0.51895 35.3728C0.567687 35.3935 0.620034 35.4038 0.672824 35.4033C0.725913 35.4043 0.77865 35.3943 0.827808 35.3739C0.876967 35.3535 0.921514 35.3231 0.958723 35.2846C0.995933 35.2461 1.02502 35.2002 1.04421 35.1498C1.0634 35.0995 1.07229 35.0457 1.07033 34.9917V34.5364H1.36041V34.9917C1.36041 35.1772 1.28797 35.3551 1.15902 35.4862C1.03007 35.6174 0.855183 35.6911 0.672824 35.6911C0.490464 35.6911 0.315574 35.6174 0.186627 35.4862C0.0576791 35.3551 -0.0147629 35.1772 -0.0147629 34.9917L-0.000438157 34.5364Z" fill="#3D4975"/>
<path d="M1.08392 34.5378V33.7109H1.84313V33.9951H1.374V34.5378H1.08392Z" fill="#3D4975"/>
<path d="M1.84717 35.0259V33.9914H1.38162V33.7109H2.14441V35.0259H1.84717Z" fill="#3D4975"/>
<path d="M37.4408 33.7109H37.7309V34.7491H40.9289V33.7109H41.219V34.7491H43.0418V34.4504H43.3319V35.0296H37.4408V33.7109Z" fill="#3D4975"/>
<path d="M46.8948 34.042L47.3066 33.339H47.6325L47.1311 34.1877" fill="#3D4975"/>
<path d="M48.2665 33.1816V32.8464H48.5422V32.9193H48.3381V33.1123H48.5494V33.1816H48.2665Z" fill="#3D4975"/>
<path d="M48.4038 33.1823H48.1925V33.1131H48.479" fill="#3D4975"/>
<path d="M44.2128 35.4076H43.9227V35.7026H44.2128V35.4076Z" fill="#3D4975"/>
<path d="M43.7325 35.4076H43.4425V35.7026H43.7325V35.4076Z" fill="#3D4975"/>
<path d="M41.4411 35.4076H41.1546V35.7026H41.4411V35.4076Z" fill="#3D4975"/>
<path d="M40.9645 35.4076H40.6744V35.7026H40.9645V35.4076Z" fill="#3D4975"/>
<path d="M31.5681 35.4076H31.278V35.7026H31.5681V35.4076Z" fill="#3D4975"/>
<path d="M31.0779 35.4076H30.7879V35.7026H31.0779V35.4076Z" fill="#3D4975"/>
<path d="M17.5911 35.946H17.301V36.241H17.5911V35.946Z" fill="#3D4975"/>
<path d="M17.1108 35.946H16.8208V36.241H17.1108V35.946Z" fill="#3D4975"/>
<path d="M1.07137 35.946H0.781292V36.241H1.07137V35.946Z" fill="#3D4975"/>
<path d="M0.594393 35.946H0.304317V36.241H0.594393V35.946Z" fill="#3D4975"/>
<path d="M37.6092 33.0367H37.3191V33.3317H37.6092V33.0367Z" fill="#3D4975"/>
<path d="M37.1339 33.0367H36.8438V33.3317H37.1339V33.0367Z" fill="#3D4975"/>
<path d="M34.698 33.0367H34.4079V33.3317H34.698V33.0367Z" fill="#3D4975"/>
<path d="M34.2182 33.0367H33.9425V33.3317H34.2325L34.2182 33.0367Z" fill="#3D4975"/>
<path d="M27.4529 33.3322H27.1629V33.6273H27.4529V33.3322Z" fill="#3D4975"/>
<path d="M2.97597 35.4076H2.6859V35.7026H2.97597V35.4076Z" fill="#3D4975"/>
<path d="M4.19617e-05 37.1026H1.04575V37.3758H0.279374V37.7947H0.916824V38.0679H0.279374V38.7636H4.19617e-05V37.1026Z" fill="#3D4975"/>
<path d="M1.22387 37.0858C1.22975 37.0452 1.2498 37.008 1.28038 36.9812C1.31095 36.9543 1.35 36.9395 1.3904 36.9395C1.43079 36.9395 1.46984 36.9543 1.50042 36.9812C1.53099 37.008 1.55104 37.0452 1.55692 37.0858C1.56044 37.1101 1.55876 37.1349 1.55201 37.1586C1.54525 37.1822 1.53358 37.204 1.51778 37.2226C1.50198 37.2412 1.48242 37.2562 1.46044 37.2664C1.43846 37.2766 1.41457 37.2819 1.3904 37.2819C1.36622 37.2819 1.34233 37.2766 1.32035 37.2664C1.29837 37.2562 1.27882 37.2412 1.26302 37.2226C1.24721 37.204 1.23554 37.1822 1.22879 37.1586C1.22203 37.1349 1.22035 37.1101 1.22387 37.0858ZM1.24536 37.4501H1.53543V38.7432H1.24536V37.4501Z" fill="#3D4975"/>
<path d="M1.84708 37.4618H2.12283V37.6913C2.15406 37.6125 2.20812 37.5451 2.27784 37.4983C2.34756 37.4515 2.42964 37.4273 2.51318 37.429C2.5783 37.4263 2.64322 37.4382 2.70338 37.4637C2.76355 37.4892 2.81751 37.5277 2.86151 37.5766C2.90551 37.6255 2.93847 37.6836 2.9581 37.7469C2.97773 37.8101 2.98355 37.8769 2.97515 37.9426V38.7622H2.70298V38.0155C2.70298 37.837 2.62062 37.6949 2.43439 37.6949C2.38985 37.6955 2.34594 37.7057 2.30562 37.725C2.2653 37.7442 2.22951 37.7721 2.20066 37.8066C2.17181 37.8411 2.15058 37.8815 2.13839 37.9251C2.1262 37.9687 2.12333 38.0144 2.12999 38.0592V38.7877H1.84708V37.4618Z" fill="#3D4975"/>
<path d="M3.18342 38.1136C3.17909 38.0265 3.192 37.9394 3.22137 37.8574C3.25074 37.7754 3.29599 37.7003 3.35443 37.6364C3.41287 37.5726 3.48331 37.5213 3.56159 37.4856C3.63986 37.45 3.72438 37.4307 3.81013 37.4288C3.90993 37.4263 4.00837 37.4527 4.09397 37.505C4.17957 37.5572 4.2488 37.6331 4.29359 37.7239V37.4652H4.5765V38.762H4.29717V38.507C4.25293 38.598 4.1837 38.6739 4.0979 38.7256C4.01209 38.7773 3.91337 38.8026 3.81371 38.7984C3.72766 38.7971 3.64275 38.7781 3.56406 38.7427C3.48536 38.7072 3.41449 38.656 3.35567 38.5921C3.29685 38.5282 3.25129 38.4529 3.2217 38.3707C3.1921 38.2885 3.17909 38.2011 3.18342 38.1136ZM4.25778 38.1136C4.26086 38.0595 4.25271 38.0054 4.23387 37.9547C4.21503 37.9041 4.18592 37.858 4.14843 37.8195C4.11094 37.781 4.06591 37.751 4.01626 37.7314C3.96661 37.7118 3.91346 37.703 3.86027 37.7057C3.80939 37.7053 3.75903 37.7159 3.71252 37.7369C3.66601 37.7579 3.62443 37.7887 3.59054 37.8273C3.55666 37.8659 3.53125 37.9114 3.51601 37.9608C3.50077 38.0101 3.49604 38.0623 3.50215 38.1136C3.50215 38.218 3.5429 38.318 3.61543 38.3918C3.68796 38.4656 3.78634 38.507 3.88892 38.507C3.99149 38.507 4.08987 38.4656 4.1624 38.3918C4.23494 38.318 4.27568 38.218 4.27568 38.1136H4.25778Z" fill="#3D4975"/>
<path d="M4.8943 37.4618H5.17005V37.6913C5.20233 37.6125 5.25714 37.5453 5.32737 37.4986C5.39761 37.4518 5.48004 37.4276 5.56398 37.429C5.62898 37.4263 5.69379 37.4381 5.75381 37.4636C5.81384 37.4891 5.86762 37.5277 5.91135 37.5767C5.95507 37.6257 5.98768 37.6839 6.00687 37.7471C6.02606 37.8104 6.03135 37.8771 6.02237 37.9427V38.7622H5.74304V38.0155C5.74304 37.837 5.65709 37.695 5.47445 37.695C5.42961 37.695 5.38529 37.7048 5.34454 37.7239C5.30379 37.7429 5.26755 37.7706 5.23831 37.8052C5.20907 37.8398 5.18752 37.8804 5.17512 37.9242C5.16272 37.9681 5.15977 38.0141 5.16647 38.0592V38.7877H4.87997V37.4873L4.8943 37.4618Z" fill="#3D4975"/>
<path d="M6.2303 38.1103C6.2303 38.0196 6.24793 37.9298 6.28217 37.846C6.3164 37.7623 6.36658 37.6862 6.42981 37.6222C6.49304 37.5583 6.56808 37.5076 6.65061 37.4732C6.73314 37.4389 6.82154 37.4214 6.91073 37.4219C7.00333 37.4226 7.09483 37.4423 7.17976 37.4799C7.26468 37.5174 7.34127 37.572 7.40493 37.6404L7.21871 37.8335C7.17954 37.7903 7.13187 37.756 7.07881 37.7328C7.02575 37.7096 6.96849 37.698 6.91073 37.6987C6.8034 37.6987 6.70047 37.7421 6.62458 37.8193C6.54869 37.8965 6.50606 38.0012 6.50606 38.1103C6.50606 38.2195 6.54869 38.3242 6.62458 38.4014C6.70047 38.4786 6.8034 38.522 6.91073 38.522C7.01871 38.5233 7.12288 38.4814 7.2008 38.4054L7.38703 38.5948C7.32525 38.6597 7.25121 38.7112 7.16936 38.7463C7.08751 38.7813 6.99954 38.7992 6.91073 38.7988C6.73089 38.7988 6.55836 38.7264 6.43086 38.5974C6.30336 38.4684 6.23125 38.2933 6.2303 38.1103Z" fill="#3D4975"/>
<path d="M7.44083 38.1116C7.44083 37.9242 7.51403 37.7444 7.64432 37.6119C7.77461 37.4794 7.95132 37.4049 8.13558 37.4049C8.31984 37.4049 8.49655 37.4794 8.62684 37.6119C8.75713 37.7444 8.83033 37.9242 8.83033 38.1116C8.83306 38.1431 8.83306 38.1748 8.83033 38.2063H7.75597C7.77519 38.2962 7.82476 38.3764 7.89607 38.4329C7.96739 38.4895 8.05593 38.5189 8.14632 38.5159C8.21585 38.5188 8.28472 38.5011 8.3445 38.4649C8.40428 38.4287 8.45239 38.3755 8.48295 38.3119H8.80168C8.74809 38.4683 8.64249 38.6007 8.50313 38.6862C8.36376 38.7718 8.19938 38.8051 8.03841 38.7805C7.87743 38.7559 7.72997 38.6748 7.62151 38.5514C7.51306 38.4279 7.45041 38.2698 7.44441 38.1043L7.44083 38.1116ZM8.51518 37.9914C8.49642 37.9053 8.44761 37.8291 8.37781 37.7768C8.308 37.7246 8.22194 37.6999 8.13558 37.7072C8.0498 37.7008 7.96461 37.7259 7.89556 37.7781C7.82652 37.8303 7.77824 37.906 7.75956 37.9914H8.51518Z" fill="#3D4975"/>
<path d="M9.45728 38.1972C9.45844 38.0951 9.48888 37.9955 9.54486 37.9108C9.60084 37.826 9.67993 37.7597 9.77242 37.72C9.73737 37.6894 9.70928 37.6513 9.69011 37.6086C9.67094 37.5658 9.66115 37.5193 9.6614 37.4723C9.67096 37.3684 9.71829 37.2719 9.79413 37.2016C9.86997 37.1313 9.96886 37.0924 10.0714 37.0924C10.174 37.0924 10.2729 37.1313 10.3488 37.2016C10.4246 37.2719 10.4719 37.3684 10.4815 37.4723H10.2129C10.2129 37.4346 10.1982 37.3985 10.172 37.3718C10.1458 37.3452 10.1103 37.3302 10.0732 37.3302C10.0362 37.3302 10.0007 37.3452 9.97448 37.3718C9.94829 37.3985 9.93357 37.4346 9.93357 37.4723C9.9326 37.4906 9.93531 37.5089 9.94153 37.5261C9.94775 37.5433 9.95735 37.559 9.96976 37.5723C9.98216 37.5856 9.9971 37.5962 10.0137 37.6034C10.0302 37.6107 10.0481 37.6144 10.0661 37.6143H10.0947V37.8875H10.0553C10.0138 37.887 9.97264 37.8951 9.93433 37.9113C9.89601 37.9276 9.86136 37.9516 9.83251 37.982C9.80367 38.0124 9.78123 38.0484 9.76659 38.0879C9.75194 38.1274 9.74539 38.1696 9.74735 38.2117C9.74637 38.2527 9.75357 38.2934 9.76852 38.3314C9.78347 38.3694 9.80586 38.4039 9.83432 38.4329C9.86279 38.4619 9.89674 38.4846 9.93411 38.4998C9.97149 38.515 10.0115 38.5224 10.0518 38.5214C10.0944 38.521 10.1366 38.5117 10.1755 38.494C10.2144 38.4762 10.2493 38.4504 10.2779 38.4182C10.3066 38.386 10.3283 38.3481 10.3418 38.3069C10.3552 38.2658 10.3601 38.2222 10.3562 38.179H10.2022V37.9495H10.7859V38.179H10.6391C10.642 38.2592 10.6289 38.3393 10.6007 38.4143C10.5725 38.4893 10.5297 38.5578 10.4748 38.6156C10.42 38.6734 10.3543 38.7194 10.2816 38.7507C10.2089 38.7821 10.1307 38.7983 10.0518 38.7982C9.89471 38.7982 9.74404 38.735 9.63265 38.6224C9.52127 38.5098 9.45822 38.3569 9.45728 38.1972Z" fill="#3D4975"/>
<path d="M11.8495 37.0975H12.1825L12.7662 38.7621H12.4547L12.3651 38.5108H11.6489L11.5594 38.7621H11.255L11.8495 37.0975ZM12.2756 38.2376L12.05 37.571C12.05 37.5273 12.0249 37.4945 12.0142 37.4508C12.0077 37.4912 11.9957 37.5304 11.9784 37.5674L11.7384 38.2376H12.2756Z" fill="#3D4975"/>
<path d="M12.8125 38.1103C12.8125 38.0196 12.8302 37.9298 12.8644 37.846C12.8986 37.7623 12.9488 37.6862 13.012 37.6222C13.0753 37.5583 13.1503 37.5076 13.2328 37.4732C13.3154 37.4389 13.4038 37.4214 13.493 37.4219C13.5856 37.4226 13.6771 37.4423 13.762 37.4799C13.8469 37.5174 13.9235 37.572 13.9872 37.6404L13.8009 37.8335C13.7618 37.7903 13.7141 37.756 13.6611 37.7328C13.608 37.7096 13.5507 37.698 13.493 37.6987C13.3856 37.6987 13.2827 37.7421 13.2068 37.8193C13.1309 37.8965 13.0883 38.0012 13.0883 38.1103C13.0883 38.2195 13.1309 38.3242 13.2068 38.4014C13.2827 38.4786 13.3856 38.522 13.493 38.522C13.6009 38.5233 13.7051 38.4814 13.783 38.4054L13.9693 38.5948C13.9075 38.6597 13.8334 38.7112 13.7516 38.7463C13.6697 38.7813 13.5818 38.7992 13.493 38.7988C13.3131 38.7988 13.1406 38.7264 13.0131 38.5974C12.8856 38.4684 12.8135 38.2933 12.8125 38.1103Z" fill="#3D4975"/>
<path d="M14.0231 38.1103C14.0231 38.0196 14.0407 37.9298 14.0749 37.846C14.1092 37.7623 14.1593 37.6862 14.2226 37.6222C14.2858 37.5583 14.3608 37.5076 14.4434 37.4732C14.5259 37.4389 14.6143 37.4214 14.7035 37.4219C14.7961 37.4226 14.8876 37.4423 14.9725 37.4799C15.0574 37.5174 15.134 37.572 15.1977 37.6404L15.0115 37.8335C14.9723 37.7903 14.9246 37.756 14.8716 37.7328C14.8185 37.7096 14.7612 37.698 14.7035 37.6987C14.5962 37.6987 14.4932 37.7421 14.4173 37.8193C14.3415 37.8965 14.2988 38.0012 14.2988 38.1103C14.2988 38.2195 14.3415 38.3242 14.4173 38.4014C14.4932 38.4786 14.5962 38.522 14.7035 38.522C14.757 38.523 14.8102 38.5132 14.86 38.4932C14.9098 38.4732 14.9552 38.4434 14.9936 38.4054L15.1798 38.5948C15.118 38.6597 15.044 38.7112 14.9621 38.7463C14.8803 38.7813 14.7923 38.7992 14.7035 38.7988C14.5237 38.7988 14.3511 38.7264 14.2236 38.5974C14.0961 38.4684 14.024 38.2933 14.0231 38.1103Z" fill="#3D4975"/>
<path d="M15.2336 38.1176C15.2322 37.9811 15.2707 37.8473 15.3442 37.7332C15.4177 37.619 15.5229 37.5296 15.6465 37.4764C15.77 37.4232 15.9063 37.4085 16.0381 37.4342C16.1698 37.46 16.2911 37.525 16.3865 37.6209C16.4819 37.7169 16.547 37.8396 16.5737 37.9733C16.6004 38.1071 16.5875 38.2459 16.5365 38.3721C16.4854 38.4983 16.3987 38.6063 16.2872 38.6822C16.1758 38.7582 16.0446 38.7988 15.9105 38.7988C15.8219 38.7997 15.7341 38.7828 15.652 38.749C15.5699 38.7152 15.4952 38.6652 15.4323 38.6019C15.3694 38.5385 15.3194 38.4631 15.2853 38.38C15.2512 38.2969 15.2336 38.2077 15.2336 38.1176ZM16.308 38.1176C16.3066 38.0396 16.2826 37.9637 16.239 37.8994C16.1954 37.8352 16.1342 37.7854 16.0629 37.7564C15.9917 37.7273 15.9136 37.7203 15.8385 37.7361C15.7633 37.752 15.6945 37.79 15.6404 37.8454C15.5864 37.9009 15.5497 37.9713 15.5348 38.0479C15.5199 38.1244 15.5275 38.2038 15.5567 38.276C15.5859 38.3482 15.6354 38.41 15.6989 38.4537C15.7625 38.4975 15.8373 38.5212 15.9141 38.5219C15.9662 38.523 16.018 38.5132 16.0663 38.4931C16.1146 38.4731 16.1583 38.4432 16.1949 38.4053C16.2314 38.3675 16.26 38.3224 16.2788 38.273C16.2977 38.2235 16.3064 38.1706 16.3044 38.1176H16.308Z" fill="#3D4975"/>
<path d="M16.7698 38.2602V37.4661H17.0563V38.2747C17.0545 38.3095 17.0602 38.3442 17.0729 38.3765C17.0856 38.4088 17.1051 38.4379 17.13 38.4618C17.1548 38.4857 17.1845 38.5038 17.2169 38.5149C17.2493 38.526 17.2837 38.5298 17.3177 38.5261C17.3513 38.5293 17.3851 38.5251 17.4169 38.5137C17.4487 38.5023 17.4777 38.4841 17.5019 38.4602C17.5261 38.4362 17.5449 38.4073 17.557 38.3753C17.5691 38.3433 17.5742 38.3089 17.572 38.2747V37.4661H17.862V38.2602C17.8509 38.3997 17.7886 38.5299 17.6874 38.6248C17.5862 38.7198 17.4536 38.7725 17.3159 38.7725C17.1783 38.7725 17.0456 38.7198 16.9444 38.6248C16.8433 38.5299 16.7809 38.3997 16.7698 38.2602Z" fill="#3D4975"/>
<path d="M18.1374 37.4618H18.4168V37.6913C18.4476 37.6122 18.5015 37.5446 18.5713 37.4976C18.6412 37.4507 18.7235 37.4268 18.8071 37.429C18.8722 37.4263 18.9371 37.4382 18.9973 37.4637C19.0575 37.4892 19.1114 37.5277 19.1554 37.5766C19.1994 37.6255 19.2324 37.6836 19.252 37.7469C19.2717 37.8101 19.2775 37.8769 19.2691 37.9426V38.7622H18.9862V38.0155C18.9862 37.837 18.9038 37.6949 18.7176 37.6949C18.673 37.6955 18.6291 37.7057 18.5888 37.725C18.5485 37.7442 18.5127 37.7721 18.4839 37.8066C18.455 37.8411 18.4338 37.8815 18.4216 37.9251C18.4094 37.9687 18.4065 38.0144 18.4132 38.0592V38.7877H18.1267V37.4873L18.1374 37.4618Z" fill="#3D4975"/>
<path d="M19.6362 37.7401H19.4392V37.4669H19.6362V37.1026H19.9226V37.4669H20.1268V37.7401H19.9226V38.4904H20.1196V38.7636H19.6182V37.7401H19.6362Z" fill="#3D4975"/>
<path d="M20.3339 37.087C20.3339 37.0416 20.3517 36.998 20.3832 36.9659C20.4148 36.9338 20.4576 36.9158 20.5022 36.9158C20.5469 36.9158 20.5897 36.9338 20.6213 36.9659C20.6528 36.998 20.6706 37.0416 20.6706 37.087C20.6706 37.1324 20.6528 37.1759 20.6213 37.208C20.5897 37.2401 20.5469 37.2582 20.5022 37.2582C20.4576 37.2582 20.4148 37.2401 20.3832 37.208C20.3517 37.1759 20.3339 37.1324 20.3339 37.087ZM20.359 37.4512H20.6491V38.7444H20.359V37.4512Z" fill="#3D4975"/>
<path d="M20.9568 37.4618H21.2325V37.6913C21.2648 37.6125 21.3196 37.5453 21.3899 37.4986C21.4601 37.4518 21.5425 37.4276 21.6265 37.429C21.6915 37.4263 21.7563 37.4381 21.8163 37.4636C21.8763 37.4891 21.9301 37.5277 21.9738 37.5767C22.0176 37.6257 22.0502 37.6839 22.0694 37.7471C22.0886 37.8104 22.0938 37.8771 22.0849 37.9427V38.7622H21.8055V38.0155C21.8055 37.837 21.7196 37.695 21.537 37.695C21.4921 37.695 21.4478 37.7048 21.407 37.7239C21.3663 37.7429 21.3301 37.7706 21.3008 37.8052C21.2716 37.8398 21.25 37.8804 21.2376 37.9242C21.2252 37.9681 21.2223 38.0141 21.229 38.0592V38.7877H20.9425V37.4873L20.9568 37.4618Z" fill="#3D4975"/>
<path d="M23.6418 37.4653V39.13H22.4994V38.8532H23.3589V38.4015C23.3105 38.4885 23.2394 38.5601 23.1534 38.6083C23.0674 38.6565 22.9699 38.6795 22.8718 38.6747C22.7938 38.6748 22.7166 38.6587 22.6448 38.6274C22.5731 38.5961 22.5085 38.5502 22.4548 38.4926C22.4012 38.4349 22.3597 38.3667 22.3328 38.2922C22.306 38.2177 22.2945 38.1383 22.2988 38.0591C22.294 37.979 22.3051 37.8988 22.3316 37.8232C22.3581 37.7477 22.3994 37.6783 22.4529 37.6194C22.5065 37.5605 22.5712 37.5133 22.6432 37.4805C22.7152 37.4478 22.793 37.4302 22.8718 37.4289C22.9722 37.4257 23.0714 37.4518 23.1577 37.5041C23.244 37.5563 23.3138 37.6326 23.3589 37.724V37.4653H23.6418ZM23.3159 38.0591C23.3159 37.9625 23.2782 37.8698 23.211 37.8015C23.1438 37.7332 23.0528 37.6948 22.9578 37.6948C22.8803 37.7146 22.8116 37.7601 22.7625 37.8241C22.7134 37.8881 22.6867 37.967 22.6867 38.0482C22.6867 38.1294 22.7134 38.2082 22.7625 38.2722C22.8116 38.3363 22.8803 38.3818 22.9578 38.4015C23.0491 38.4017 23.1371 38.3663 23.2037 38.3026C23.2703 38.239 23.3104 38.1519 23.3159 38.0591Z" fill="#3D4975"/>
<path d="M24.477 37.1026H25.5191V37.3758H24.7635V37.7947H25.3866V38.0679H24.7635V38.4904H25.5191V38.7636H24.477V37.1026Z" fill="#3D4975"/>
<path d="M26.1067 38.0999L25.6842 37.4661H26.0423L26.2822 37.8595L26.5186 37.4661H26.8767L26.4219 38.0999L26.866 38.7628H26.5078L26.2643 38.3439L26.0029 38.7592H25.6448L26.1067 38.0999Z" fill="#3D4975"/>
<path d="M26.9014 38.1106C26.9014 38.0199 26.919 37.93 26.9532 37.8463C26.9875 37.7625 27.0376 37.6865 27.1009 37.6225C27.1641 37.5585 27.2391 37.5079 27.3217 37.4735C27.4042 37.4391 27.4926 37.4216 27.5818 37.4221C27.6744 37.4228 27.7659 37.4426 27.8508 37.4801C27.9357 37.5177 28.0123 37.5723 28.076 37.6407L27.8898 37.8337C27.8506 37.7906 27.8029 37.7563 27.7499 37.733C27.6968 37.7098 27.6395 37.6982 27.5818 37.699C27.4745 37.699 27.3715 37.7423 27.2956 37.8195C27.2197 37.8967 27.1771 38.0014 27.1771 38.1106C27.1771 38.2198 27.2197 38.3244 27.2956 38.4016C27.3715 38.4788 27.4745 38.5222 27.5818 38.5222C27.6353 38.5233 27.6885 38.5135 27.7383 38.4935C27.7881 38.4735 27.8335 38.4436 27.8719 38.4056L28.0581 38.5951C27.9963 38.6599 27.9223 38.7115 27.8404 38.7465C27.7586 38.7816 27.6706 38.7994 27.5818 38.799C27.4019 38.799 27.2294 38.7266 27.1019 38.5976C26.9744 38.4686 26.9023 38.2935 26.9014 38.1106Z" fill="#3D4975"/>
<path d="M28.1579 38.1116C28.1579 37.9242 28.2311 37.7444 28.3614 37.6119C28.4917 37.4794 28.6684 37.4049 28.8527 37.4049C29.0369 37.4049 29.2137 37.4794 29.3439 37.6119C29.4742 37.7444 29.5474 37.9242 29.5474 38.1116C29.5502 38.1431 29.5502 38.1748 29.5474 38.2063H28.4731C28.4929 38.2958 28.5427 38.3756 28.6138 38.4321C28.685 38.4885 28.7732 38.5182 28.8634 38.5159C28.933 38.5188 29.0018 38.5011 29.0616 38.4649C29.1214 38.4287 29.1695 38.3755 29.2001 38.3119H29.5188C29.4652 38.4683 29.3596 38.6007 29.2202 38.6862C29.0809 38.7718 28.9165 38.8051 28.7555 38.7805C28.5945 38.7559 28.4471 38.6748 28.3386 38.5514C28.2302 38.4279 28.1675 38.2698 28.1615 38.1043L28.1579 38.1116ZM29.2323 37.9914C29.2141 37.9092 29.1685 37.836 29.1032 37.7842C29.0379 37.7324 28.957 37.7052 28.8742 37.7072C28.7878 37.6999 28.7017 37.7246 28.6319 37.7768C28.5621 37.8291 28.5133 37.9053 28.4946 37.9914H29.2323Z" fill="#3D4975"/>
<path d="M29.8027 37.1026H30.0892V38.7636H29.8027V37.1026Z" fill="#3D4975"/>
<path d="M30.4433 37.1026H30.7191V38.7636H30.4326L30.4433 37.1026Z" fill="#3D4975"/>
<path d="M30.9885 38.1116C30.9885 37.9242 31.0617 37.7444 31.192 37.6119C31.3223 37.4794 31.499 37.4049 31.6833 37.4049C31.8675 37.4049 32.0442 37.4794 32.1745 37.6119C32.3048 37.7444 32.378 37.9242 32.378 38.1116C32.3808 38.1431 32.3808 38.1748 32.378 38.2063H31.3037C31.3235 38.2958 31.3733 38.3756 31.4444 38.4321C31.5156 38.4885 31.6038 38.5182 31.694 38.5159C31.7635 38.5188 31.8324 38.5011 31.8922 38.4649C31.952 38.4287 32.0001 38.3755 32.0307 38.3119H32.3494C32.2958 38.4683 32.1902 38.6007 32.0508 38.6862C31.9115 38.7718 31.7471 38.8051 31.5861 38.7805C31.4251 38.7559 31.2777 38.6748 31.1692 38.5514C31.0608 38.4279 30.9981 38.2698 30.9921 38.1043L30.9885 38.1116ZM32.0629 37.9914C32.0441 37.9053 31.9953 37.8291 31.9255 37.7768C31.8557 37.7246 31.7696 37.6999 31.6833 37.7072C31.5975 37.7008 31.5123 37.7259 31.4433 37.7781C31.3742 37.8303 31.3259 37.906 31.3073 37.9914H32.0629Z" fill="#3D4975"/>
<path d="M32.6309 37.4618H32.9102V37.6913C32.941 37.6122 32.9949 37.5446 33.0648 37.4976C33.1346 37.4507 33.2169 37.4268 33.3005 37.429C33.3657 37.4263 33.4306 37.4382 33.4907 37.4637C33.5509 37.4892 33.6049 37.5277 33.6489 37.5766C33.6929 37.6255 33.7258 37.6836 33.7455 37.7469C33.7651 37.8101 33.7709 37.8769 33.7625 37.9426V38.7622H33.4796V38.0155C33.4796 37.837 33.3972 37.6949 33.211 37.6949C33.1665 37.6955 33.1226 37.7057 33.0822 37.725C33.0419 37.7442 33.0061 37.7721 32.9773 37.8066C32.9484 37.8411 32.9272 37.8815 32.915 37.9251C32.9028 37.9687 32.8999 38.0144 32.9066 38.0592V38.7877H32.6201V37.4873L32.6309 37.4618Z" fill="#3D4975"/>
<path d="M34.0181 38.1103C34.0181 38.0196 34.0358 37.9298 34.07 37.846C34.1042 37.7623 34.1544 37.6862 34.2176 37.6222C34.2809 37.5583 34.3559 37.5076 34.4384 37.4732C34.521 37.4389 34.6094 37.4214 34.6986 37.4219C34.7906 37.4229 34.8815 37.4427 34.9658 37.4803C35.0501 37.5178 35.1261 37.5723 35.1892 37.6404L35.003 37.8335C34.9645 37.7904 34.9174 37.7561 34.865 37.7329C34.8125 37.7097 34.7558 37.698 34.6986 37.6987C34.5912 37.6987 34.4883 37.7421 34.4124 37.8193C34.3365 37.8965 34.2939 38.0012 34.2939 38.1103C34.2939 38.2195 34.3365 38.3242 34.4124 38.4014C34.4883 38.4786 34.5912 38.522 34.6986 38.522C34.8065 38.5233 34.9107 38.4814 34.9886 38.4054L35.1749 38.5948C35.1123 38.6596 35.0376 38.7111 34.9552 38.7461C34.8728 38.7812 34.7843 38.7991 34.695 38.7988C34.6061 38.7988 34.5181 38.781 34.436 38.7464C34.3538 38.7118 34.2792 38.6611 34.2164 38.5972C34.1535 38.5332 34.1037 38.4573 34.0696 38.3738C34.0356 38.2903 34.0181 38.2007 34.0181 38.1103Z" fill="#3D4975"/>
<path d="M35.2714 38.1116C35.2714 37.9242 35.3446 37.7444 35.4749 37.6119C35.6052 37.4794 35.7819 37.4049 35.9662 37.4049C36.1504 37.4049 36.3271 37.4794 36.4574 37.6119C36.5877 37.7444 36.6609 37.9242 36.6609 38.1116C36.6637 38.1431 36.6637 38.1748 36.6609 38.2063H35.5866C35.605 38.2959 35.6539 38.376 35.7246 38.4326C35.7953 38.4892 35.8834 38.5187 35.9733 38.5159C36.0464 38.5233 36.1199 38.5078 36.184 38.4713C36.248 38.4348 36.2995 38.3792 36.3315 38.3119H36.6502C36.5966 38.4683 36.491 38.6007 36.3516 38.6862C36.2123 38.7718 36.0479 38.8051 35.8869 38.7805C35.7259 38.7559 35.5785 38.6748 35.47 38.5514C35.3616 38.4279 35.2989 38.2698 35.2929 38.1043L35.2714 38.1116ZM36.3458 37.9914C36.3276 37.9092 36.282 37.836 36.2167 37.7842C36.1514 37.7324 36.0704 37.7052 35.9877 37.7072C35.9049 37.7052 35.8239 37.7324 35.7587 37.7842C35.6934 37.836 35.6477 37.9092 35.6295 37.9914H36.3458Z" fill="#3D4975"/>
<path d="M37.8815 37.0975H38.2145L38.7982 38.7621H38.4939L38.4043 38.5108H37.6881L37.6021 38.7621H37.2977L37.8815 37.0975ZM38.3076 38.2376L38.082 37.571C38.082 37.5273 38.0569 37.4945 38.0462 37.4508C38.0393 37.4907 38.0285 37.5297 38.014 37.5674L37.7884 38.2376H38.3076Z" fill="#3D4975"/>
<path d="M38.8882 38.1103C38.8882 38.0196 38.9058 37.9298 38.9401 37.846C38.9743 37.7623 39.0245 37.6862 39.0877 37.6222C39.1509 37.5583 39.226 37.5076 39.3085 37.4732C39.391 37.4389 39.4794 37.4214 39.5686 37.4219C39.6612 37.4226 39.7527 37.4423 39.8377 37.4799C39.9226 37.5174 39.9992 37.572 40.0628 37.6404L39.8766 37.8335C39.8374 37.7903 39.7898 37.756 39.7367 37.7328C39.6837 37.7096 39.6264 37.698 39.5686 37.6987C39.4613 37.6987 39.3584 37.7421 39.2825 37.8193C39.2066 37.8965 39.164 38.0012 39.164 38.1103C39.164 38.2195 39.2066 38.3242 39.2825 38.4014C39.3584 38.4786 39.4613 38.522 39.5686 38.522C39.6766 38.5233 39.7808 38.4814 39.8587 38.4054L40.0449 38.5948C39.9831 38.6597 39.9091 38.7112 39.8273 38.7463C39.7454 38.7813 39.6574 38.7992 39.5686 38.7988C39.3888 38.7988 39.2163 38.7264 39.0888 38.5974C38.9613 38.4684 38.8891 38.2933 38.8882 38.1103Z" fill="#3D4975"/>
<path d="M40.1438 38.1137C40.1399 38.0267 40.1532 37.9398 40.1827 37.858C40.2123 37.7763 40.2576 37.7013 40.3159 37.6376C40.3743 37.5738 40.4445 37.5225 40.5225 37.4867C40.6006 37.4509 40.6849 37.4312 40.7705 37.4289C40.8704 37.4259 40.969 37.4521 41.0547 37.5044C41.1403 37.5567 41.2095 37.6329 41.2539 37.7239V37.4653H41.5369V38.7621H41.2539V38.5071C41.2097 38.598 41.1405 38.6739 41.0547 38.7257C40.9689 38.7774 40.8701 38.8027 40.7705 38.7985C40.6849 38.7962 40.6006 38.7765 40.5225 38.7407C40.4445 38.7048 40.3743 38.6536 40.3159 38.5898C40.2576 38.526 40.2123 38.4511 40.1827 38.3694C40.1532 38.2876 40.1399 38.2007 40.1438 38.1137ZM41.2181 38.1137C41.2211 38.0602 41.2132 38.0067 41.1948 37.9566C41.1764 37.9064 41.1479 37.8607 41.1112 37.8224C41.0745 37.784 41.0303 37.7538 40.9815 37.7337C40.9327 37.7137 40.8804 37.7041 40.8278 37.7057C40.7748 37.7015 40.7217 37.7094 40.6721 37.7286C40.6225 37.7479 40.5777 37.7782 40.5411 37.8173C40.5044 37.8563 40.4767 37.9032 40.46 37.9544C40.4433 38.0057 40.4381 38.0601 40.4446 38.1137C40.4446 38.218 40.4853 38.3181 40.5579 38.3919C40.6304 38.4656 40.7288 38.5071 40.8314 38.5071C40.9339 38.5071 41.0323 38.4656 41.1048 38.3919C41.1774 38.3181 41.2181 38.218 41.2181 38.1137Z" fill="#3D4975"/>
<path d="M41.8202 38.1138C41.8153 38.0277 41.8274 37.9415 41.8557 37.8603C41.884 37.779 41.928 37.7044 41.985 37.6406C42.042 37.5768 42.111 37.5253 42.1878 37.4889C42.2647 37.4526 42.3479 37.4322 42.4325 37.4289C42.5333 37.4264 42.6327 37.4527 42.7195 37.5048C42.8062 37.557 42.8768 37.633 42.9232 37.724V37.0975H43.2097V38.7621H42.9303V38.5072C42.8825 38.598 42.8103 38.6732 42.7223 38.7241C42.6342 38.775 42.5337 38.7996 42.4325 38.7949C42.348 38.7922 42.2649 38.7722 42.1881 38.7363C42.1113 38.7003 42.0423 38.6491 41.9852 38.5856C41.9281 38.5221 41.8841 38.4477 41.8558 38.3667C41.8275 38.2856 41.8153 38.1996 41.8202 38.1138ZM42.8945 38.1138C42.8975 38.0606 42.8896 38.0074 42.8714 37.9575C42.8532 37.9077 42.8251 37.8621 42.7888 37.8238C42.7525 37.7855 42.7087 37.7552 42.6604 37.7349C42.612 37.7146 42.5601 37.7047 42.5077 37.7058C42.4553 37.7041 42.4031 37.7137 42.3545 37.7338C42.3058 37.7539 42.2619 37.7842 42.2255 37.8226C42.189 37.861 42.1609 37.9068 42.1429 37.9569C42.1249 38.0071 42.1174 38.0605 42.121 38.1138C42.121 38.2181 42.1617 38.3182 42.2343 38.3919C42.3068 38.4657 42.4052 38.5072 42.5077 38.5072C42.6103 38.5072 42.7087 38.4657 42.7812 38.3919C42.8538 38.3182 42.8945 38.2181 42.8945 38.1138Z" fill="#3D4975"/>
<path d="M43.4606 38.1116C43.4606 37.9242 43.5338 37.7444 43.6641 37.6119C43.7943 37.4794 43.9711 37.4049 44.1553 37.4049C44.3396 37.4049 44.5163 37.4794 44.6466 37.6119C44.7769 37.7444 44.8501 37.9242 44.8501 38.1116C44.8528 38.1431 44.8528 38.1748 44.8501 38.2063H43.7757C43.7956 38.2958 43.8453 38.3756 43.9165 38.4321C43.9876 38.4885 44.0758 38.5182 44.1661 38.5159C44.2391 38.5233 44.3126 38.5078 44.3767 38.4713C44.4408 38.4348 44.4922 38.3792 44.5242 38.3119H44.8429C44.7893 38.4683 44.6837 38.6007 44.5443 38.6862C44.405 38.7718 44.2406 38.8051 44.0796 38.7805C43.9187 38.7559 43.7712 38.6748 43.6627 38.5514C43.5543 38.4279 43.4916 38.2698 43.4856 38.1043L43.4606 38.1116ZM44.5349 37.9914C44.5162 37.9053 44.4673 37.8291 44.3975 37.7768C44.3277 37.7246 44.2417 37.6999 44.1553 37.7072C44.0725 37.7052 43.9916 37.7324 43.9263 37.7842C43.861 37.836 43.8154 37.9092 43.7972 37.9914H44.5349Z" fill="#3D4975"/>
<path d="M47.1099 37.947V38.7629H46.8341V38.0344C46.8341 37.834 46.7446 37.7138 46.5656 37.7138C46.5204 37.7133 46.4757 37.7228 46.4345 37.7416C46.3933 37.7604 46.3566 37.7881 46.327 37.8227C46.2974 37.8574 46.2755 37.8981 46.2629 37.9422C46.2503 37.9863 46.2472 38.0327 46.254 38.0781V38.8066H45.9747V38.0781C45.9747 37.8996 45.8923 37.7576 45.7061 37.7576C45.6612 37.7576 45.6169 37.7674 45.5762 37.7865C45.5354 37.8055 45.4992 37.8332 45.4699 37.8678C45.4407 37.9024 45.4191 37.943 45.4067 37.9868C45.3943 38.0307 45.3914 38.0767 45.3981 38.1218V38.8503H45.1152V37.5499H45.3909V37.7794C45.4261 37.7002 45.483 37.633 45.5548 37.5859C45.6265 37.5388 45.7102 37.5137 45.7956 37.5137C45.881 37.5137 45.9647 37.5388 46.0364 37.5859C46.1082 37.633 46.1651 37.7002 46.2003 37.7794H46.2253C46.2721 37.679 46.352 37.5985 46.4513 37.552C46.5505 37.5055 46.6626 37.4959 46.768 37.525C46.8734 37.5541 46.9654 37.62 47.0279 37.7111C47.0904 37.8022 47.1195 37.9128 47.1099 38.0235V37.947Z" fill="#3D4975"/>
<path d="M47.7649 38.569L47.2599 37.4762H47.5751L47.9332 38.2411L48.2483 37.4762H48.5599L47.8222 39.1445H47.507L47.7649 38.569Z" fill="#3D4975"/>
</g>
<defs>
<clipPath id="clip0_16_11189">
<rect width="80" height="40" fill="white"/>
</clipPath>
</defs>
</svg>
