<svg width="20" height="20" viewBox="0 0 20 20" fill="none" xmlns="http://www.w3.org/2000/svg">
<g clip-path="url(#clip0_263_1113)">
<path d="M10 20C15.5228 20 20 15.5228 20 10C20 4.47715 15.5228 0 10 0C4.47715 0 0 4.47715 0 10C0 15.5228 4.47715 20 10 20Z" fill="#6DA544"/>
<path d="M5.65039 11.9564C5.65039 12.6768 6.23438 13.2608 6.95473 13.2608H10.8678C10.8678 13.8611 11.3544 14.3477 11.9547 14.3477H13.2591C13.8594 14.3477 14.346 13.8611 14.346 13.2608V11.9564H5.65039Z" fill="#F0F0F0"/>
<path d="M14.4555 5.6521V8.69558C14.4555 9.17507 14.0654 9.56515 13.5859 9.56515V10.8695C14.7846 10.8695 15.7598 9.89425 15.7598 8.69558V5.6521H14.4555Z" fill="#F0F0F0"/>
<path d="M5.10785 8.69558C5.10785 9.17507 4.71777 9.56515 4.23828 9.56515V10.8695C5.43699 10.8695 6.41219 9.89425 6.41219 8.69558V5.6521H5.10785V8.69558Z" fill="#F0F0F0"/>
<path d="M12.5 5.6521H13.8043V8.69558H12.5V5.6521Z" fill="#F0F0F0"/>
<path d="M10.5427 7.39124C10.5427 7.51112 10.4452 7.60862 10.3253 7.60862C10.2055 7.60862 10.1079 7.51108 10.1079 7.39124V5.6521H8.80359V7.39124C8.80359 7.51112 8.70605 7.60862 8.58621 7.60862C8.46637 7.60862 8.36883 7.51108 8.36883 7.39124V5.6521H7.06445V7.39124C7.06445 8.23034 7.74711 8.913 8.58621 8.913C8.90938 8.913 9.20906 8.81144 9.45578 8.63894C9.70246 8.8114 10.0022 8.913 10.3254 8.913C10.3904 8.913 10.4544 8.90843 10.5173 8.90042C10.4249 9.28124 10.082 9.56515 9.67316 9.56515V10.8695C10.8719 10.8695 11.8471 9.89425 11.8471 8.69558V7.39124V5.6521H10.5427V7.39124H10.5427Z" fill="#F0F0F0"/>
<path d="M7.06445 9.56519H9.02098V10.8695H7.06445V9.56519Z" fill="#F0F0F0"/>
</g>
<defs>
<clipPath id="clip0_263_1113">
<rect width="20" height="20" fill="white"/>
</clipPath>
</defs>
</svg>
