<svg preserveAspectRatio="none" width="100%" height="100%" overflow="visible" style="display: block;" viewBox="0 0 80.0147 39.2119" fill="none" xmlns="http://www.w3.org/2000/svg">
<g id="Group 14454">
<path id="Vector" d="M2.26352 23.7738H3.47754L5.59402 29.8059H4.49102L4.16155 28.8734H1.5831L1.26437 29.7914H0.161368L2.26352 23.7738ZM3.81775 27.8899L2.99766 25.4712C2.94753 25.3182 2.90813 25.1908 2.87232 25.0378C2.84741 25.1848 2.80408 25.3281 2.7434 25.464L1.91973 27.8899H3.81775Z" fill="var(--fill-0, #3F4B76)"/>
<path id="Vector_2" d="M7.20978 23.7738H6.17124V29.8059H7.20978V23.7738Z" fill="var(--fill-0, #3F4B76)"/>
<path id="Vector_3" d="M8.58813 26.0941H7.87189V25.096H8.58813V23.7738H9.63384V25.0997H10.3716V26.0978H9.63384V28.8115H10.3501V29.8096H8.58813V26.0941Z" fill="var(--fill-0, #3F4B76)"/>
<path id="Vector_4" d="M10.8583 27.4478C10.8429 27.1307 10.8903 26.8137 10.9976 26.5155C11.1049 26.2173 11.27 25.9441 11.4831 25.7121C11.6962 25.4801 11.9529 25.2939 12.2381 25.1647C12.5232 25.0355 12.831 24.9659 13.1431 24.9599C13.5049 24.9501 13.862 25.0461 14.1718 25.2366C14.4816 25.4271 14.7311 25.704 14.8907 26.0345H14.9265V25.0983H15.9471V29.8046H14.9265V28.8721H14.8907C14.7303 29.2001 14.4799 29.4738 14.1697 29.66C13.8595 29.8462 13.5029 29.9369 13.1431 29.9212C12.8324 29.9147 12.5261 29.8451 12.2422 29.7166C11.9582 29.5882 11.7024 29.4033 11.4896 29.173C11.2768 28.9426 11.1113 28.6714 11.0029 28.3751C10.8945 28.0789 10.8454 27.7636 10.8583 27.4478ZM14.7725 27.4478C14.7634 27.168 14.6737 26.897 14.5147 26.6685C14.3557 26.4399 14.1343 26.2638 13.8779 26.162C13.6215 26.0601 13.3414 26.037 13.0722 26.0954C12.803 26.1538 12.5565 26.2913 12.3633 26.4907C12.1701 26.6902 12.0387 26.9429 11.9853 27.2175C11.9318 27.4922 11.9587 27.7768 12.0627 28.036C12.1666 28.2953 12.3431 28.5178 12.5701 28.6762C12.7971 28.8345 13.0648 28.9216 13.34 28.9267C13.5319 28.9341 13.7232 28.9007 13.9017 28.8287C14.0802 28.7567 14.242 28.6476 14.3768 28.5085C14.5116 28.3693 14.6164 28.2032 14.6845 28.0206C14.7526 27.8379 14.7826 27.6429 14.7725 27.4478Z" fill="var(--fill-0, #3F4B76)"/>
<path id="Vector_5" d="M24.3561 26.8329V29.8053H23.3211V27.117C23.3211 26.3885 22.9952 25.9587 22.3506 25.9587C22.1934 25.9575 22.0376 25.9899 21.8933 26.0536C21.7491 26.1173 21.6195 26.211 21.5129 26.3286C21.4064 26.4463 21.3252 26.5853 21.2745 26.7367C21.2239 26.8882 21.205 27.0488 21.219 27.2081V29.8053H20.1983V27.0988C20.1983 26.4504 19.8975 25.9405 19.2278 25.9405C19.0721 25.9418 18.9183 25.976 18.7762 26.0408C18.634 26.1057 18.5066 26.1997 18.402 26.3171C18.2974 26.4345 18.2178 26.5726 18.1682 26.7228C18.1187 26.873 18.1002 27.0321 18.1141 27.1899V29.8053H17.0791V25.0699H18.0819V25.8967H18.1248C18.2579 25.6111 18.4693 25.3706 18.7336 25.2043C18.9979 25.038 19.3039 24.953 19.6146 24.9596C19.9253 24.9661 20.2276 25.0639 20.4849 25.2412C20.7422 25.4185 20.9437 25.6676 21.065 25.9587H21.1509C21.2857 25.6524 21.5073 25.3941 21.7875 25.2169C22.0676 25.0397 22.3934 24.9517 22.7231 24.9642C23.8046 24.9533 24.3561 25.8203 24.3561 26.8329Z" fill="var(--fill-0, #3F4B76)"/>
<path id="Vector_6" d="M25.0688 27.4479C25.0534 27.1307 25.1008 26.8137 25.2081 26.5155C25.3154 26.2174 25.4806 25.9442 25.6936 25.7122C25.9067 25.4801 26.1635 25.294 26.4486 25.1648C26.7337 25.0356 27.0415 24.9659 27.3536 24.96C27.716 24.9499 28.0736 25.0458 28.384 25.2362C28.6944 25.4267 28.9446 25.7038 29.1048 26.0345H29.137V25.0984H30.1577V29.8046H29.137V28.8721H29.1048C28.9438 29.2005 28.6928 29.4743 28.382 29.6605C28.0712 29.8467 27.714 29.9372 27.3536 29.9212C27.0429 29.9147 26.7366 29.8452 26.4527 29.7167C26.1688 29.5882 25.9129 29.4034 25.7001 29.173C25.4873 28.9427 25.3219 28.6714 25.2135 28.3752C25.1051 28.0789 25.0559 27.7637 25.0688 27.4479ZM28.9866 27.4479C28.9775 27.168 28.8878 26.8971 28.7288 26.6685C28.5698 26.44 28.3484 26.2639 28.092 26.162C27.8356 26.0602 27.5555 26.037 27.2863 26.0954C27.0171 26.1539 26.7706 26.2913 26.5774 26.4908C26.3842 26.6902 26.2528 26.9429 26.1994 27.2176C26.1459 27.4922 26.1729 27.7768 26.2768 28.0361C26.3808 28.2953 26.5572 28.5179 26.7842 28.6762C27.0112 28.8345 27.2789 28.9216 27.5542 28.9268C27.746 28.9341 27.9373 28.9007 28.1158 28.8287C28.2943 28.7567 28.4561 28.6477 28.5909 28.5085C28.7257 28.3694 28.8305 28.2032 28.8986 28.0206C28.9667 27.838 28.9967 27.6429 28.9866 27.4479Z" fill="var(--fill-0, #3F4B76)"/>
<path id="Vector_7" d="M32.4996 29.0986L30.6696 25.0917H31.8084L33.0905 27.8674L34.2293 25.0917H35.3681L32.6822 31.1457H31.5291L32.4996 29.0986Z" fill="var(--fill-0, #3F4B76)"/>
<path id="Vector_8" d="M37.0805 29.0986L35.2469 25.0917H36.3857L37.6678 27.8674L38.8066 25.0917H39.9418L37.2559 31.1457H36.1064L37.0805 29.0986Z" fill="var(--fill-0, #3F4B76)"/>
<path id="Vector_9" d="M40.3357 27.9762V25.0985H41.3743V28.0345C41.3743 28.2876 41.4731 28.5303 41.6491 28.7093C41.825 28.8883 42.0637 28.9888 42.3125 28.9888C42.5614 28.9888 42.8 28.8883 42.976 28.7093C43.1519 28.5303 43.2508 28.2876 43.2508 28.0345V25.0985H44.3037V27.9762C44.3037 28.5114 44.0946 29.0247 43.7226 29.4031C43.3505 29.7816 42.8459 29.9942 42.3197 29.9942C41.7935 29.9942 41.2889 29.7816 40.9168 29.4031C40.5447 29.0247 40.3357 28.5114 40.3357 27.9762Z" fill="var(--fill-0, #3F4B76)"/>
<path id="Vector_10" d="M44.9804 28.9199L47.2258 26.075H45.0771V25.0951H48.533V26.0604L46.3556 28.8251H48.5974V29.805H44.9804V28.9199Z" fill="var(--fill-0, #3F4B76)"/>
<path id="Vector_11" d="M48.5866 14.0353H47.566V20.0711H48.6009L48.5866 14.0353Z" fill="var(--fill-0, #3F4B76)"/>
<path id="Vector_12" d="M46.2804 20.0711H42.6992V19.0767H45.2597V14.0353H46.2983L46.2804 20.0711Z" fill="var(--fill-0, #3F4B76)"/>
<path id="Vector_13" d="M22.1399 16.3859H23.1856V22.4253H20.5462V21.4892H22.1399V16.3859Z" fill="var(--fill-0, #3F4B76)"/>
<path id="Vector_14" d="M22.1383 16.3943H23.1769V19.0789H30.572V15.3635H31.607V19.0789H41.7811V15.3635H42.8197V20.0734H22.1383V16.3943Z" fill="var(--fill-0, #3F4B76)"/>
<path id="Vector_15" d="M36.8433 20.0662C36.1974 20.0662 35.578 19.8052 35.1213 19.3407C34.6646 18.8762 34.4081 18.2461 34.4081 17.5892C34.4081 16.9323 34.6646 16.3022 35.1213 15.8377C35.578 15.3732 36.1974 15.1122 36.8433 15.1122C37.1652 15.1089 37.4845 15.1704 37.7829 15.2934C38.0812 15.4164 38.3527 15.5983 38.5815 15.8286C38.8102 16.059 38.9919 16.3332 39.1158 16.6354C39.2398 16.9376 39.3036 17.2618 39.3036 17.5892V20.0662H36.8433ZM38.2758 17.5892C38.2758 17.301 38.1917 17.0193 38.0343 16.7797C37.8769 16.5401 37.6532 16.3533 37.3915 16.2431C37.1297 16.1328 36.8417 16.1039 36.5638 16.1602C36.2859 16.2164 36.0307 16.3551 35.8304 16.5589C35.63 16.7627 35.4936 17.0223 35.4383 17.3049C35.3831 17.5876 35.4114 17.8805 35.5198 18.1468C35.6283 18.413 35.8119 18.6406 36.0474 18.8007C36.283 18.9608 36.56 19.0462 36.8433 19.0462H38.2758V17.5892Z" fill="var(--fill-0, #3F4B76)"/>
<path id="Vector_16" d="M32.4822 21.4266H31.4508V22.4903H32.4965L32.4822 21.4266Z" fill="var(--fill-0, #3F4B76)"/>
<path id="Vector_17" d="M30.7594 21.4266H29.7173V22.4903H30.7594V21.4266Z" fill="var(--fill-0, #3F4B76)"/>
<path id="Vector_18" d="M43.7479 13.2388H42.7058V14.3024H43.7479V13.2388Z" fill="var(--fill-0, #3F4B76)"/>
<path id="Vector_19" d="M42.0294 13.2388H40.9837V14.3024H42.0294V13.2388Z" fill="var(--fill-0, #3F4B76)"/>
<path id="Vector_20" d="M23.1876 14.0353H22.1383V15.099H23.184L23.1876 14.0353Z" fill="var(--fill-0, #3F4B76)"/>
<path id="Vector_21" d="M54.2337 39.2119H66.3381L80.0147 17.2724H67.9103L54.2337 39.2119Z" fill="var(--fill-0, #3F4B76)"/>
<path id="Vector_22" d="M67.9102 6.95992H57.7683V17.2722H67.9102V6.95992Z" fill="var(--fill-0, #0095A4)"/>
<path id="Vector_23" d="M57.7679 0H50.9278V6.96104H57.7679V0Z" fill="var(--fill-0, #55B8CC)"/>
<path id="Vector_24" d="M3.92782 34.1267H4.23222V34.7495H4.82311V33.9737H5.11319V34.7678H5.7005V33.7296H5.99058V35.0482H3.92782V34.1267Z" fill="var(--fill-0, #3D4975)"/>
<path id="Vector_25" d="M16.5018 34.5363H16.7955V34.9917C16.7955 35.0979 16.837 35.1999 16.9109 35.275C16.9847 35.3501 17.0849 35.3924 17.1894 35.3924C17.2939 35.3924 17.3941 35.3501 17.468 35.275C17.5418 35.1999 17.5833 35.0979 17.5833 34.9917V34.5363H17.877V34.9917C17.877 35.1772 17.8046 35.3551 17.6756 35.4862C17.5467 35.6174 17.3718 35.6911 17.1894 35.6911C17.0071 35.6911 16.8322 35.6174 16.7032 35.4862C16.5743 35.3551 16.5018 35.1772 16.5018 34.9917V34.5363Z" fill="var(--fill-0, #3D4975)"/>
<path id="Vector_26" d="M44.2269 35.0259H43.0594V34.4467H43.3495V34.7454H43.9368V33.7109H44.2269V35.0259Z" fill="var(--fill-0, #3D4975)"/>
<path id="Vector_27" d="M36.106 35.0255H35.816V33.339H36.106V35.0255Z" fill="var(--fill-0, #3D4975)"/>
<path id="Vector_28" d="M48.532 35.0255H48.242V33.339H48.532V35.0255Z" fill="var(--fill-0, #3D4975)"/>
<path id="Vector_29" d="M46.3807 35.0255H46.0906V33.339H46.3807V35.0255Z" fill="var(--fill-0, #3D4975)"/>
<path id="Vector_30" d="M35.4474 35.0258H34.4804V34.7453H35.1573V33.3356H35.4474V35.0258Z" fill="var(--fill-0, #3D4975)"/>
<path id="Vector_31" d="M27.1959 33.9946H27.4896V35.6847H26.7518V35.4298H27.1959V33.9946Z" fill="var(--fill-0, #3D4975)"/>
<path id="Vector_32" d="M15.589 34.7452H15.8826V35.685H15.1449V35.4301H15.589V34.7452Z" fill="var(--fill-0, #3D4975)"/>
<path id="Vector_33" d="M27.1992 33.9987H27.4893V34.7491H31.0705V33.7109H31.3605V34.7491H34.2255V33.7109H34.5156V35.0259H27.1992V33.9987Z" fill="var(--fill-0, #3D4975)"/>
<path id="Vector_34" d="M1.86203 33.9987H2.1521V34.7491H2.73225V33.7109H3.02233V34.7491H3.92837V33.9732H4.23277V35.0441H1.86203V33.9987Z" fill="var(--fill-0, #3D4975)"/>
<path id="Vector_35" d="M32.8078 35.026C32.6267 35.026 32.4529 34.9533 32.3242 34.8237C32.1954 34.6941 32.1221 34.5181 32.1203 34.3339C32.1203 34.1484 32.1927 33.9705 32.3216 33.8394C32.4506 33.7082 32.6255 33.6345 32.8078 33.6345C32.9902 33.6345 33.1651 33.7082 33.294 33.8394C33.423 33.9705 33.4954 34.1484 33.4954 34.3339V35.026H32.8078ZM33.2053 34.3375C33.2083 34.2831 33.2002 34.2287 33.1814 34.1777C33.1627 34.1266 33.1337 34.0801 33.0963 34.0411C33.0589 34.002 33.014 33.9713 32.9643 33.9509C32.9147 33.9304 32.8614 33.9207 32.8078 33.9223C32.7544 33.9206 32.7013 33.9304 32.6518 33.9509C32.6023 33.9713 32.5576 34.0021 32.5205 34.0412C32.4834 34.0803 32.4548 34.1269 32.4364 34.1779C32.4181 34.2289 32.4104 34.2833 32.4139 34.3375C32.412 34.3912 32.4207 34.4447 32.4397 34.4948C32.4587 34.5449 32.4875 34.5906 32.5243 34.6291C32.5611 34.6676 32.6052 34.698 32.654 34.7187C32.7027 34.7393 32.755 34.7497 32.8078 34.7491H33.2053V34.3375Z" fill="var(--fill-0, #3D4975)"/>
<path id="Vector_36" d="M42.6598 35.026C42.4787 35.026 42.3049 34.9533 42.1761 34.8237C42.0474 34.6941 41.9741 34.5181 41.9722 34.3339C41.9722 34.1484 42.0447 33.9705 42.1736 33.8394C42.3026 33.7082 42.4775 33.6345 42.6598 33.6345C42.8422 33.6345 43.0171 33.7082 43.146 33.8394C43.275 33.9705 43.3474 34.1484 43.3474 34.3339V35.026H42.6598ZM43.0573 34.3339C43.0559 34.2542 43.0314 34.1768 42.9869 34.1113C42.9423 34.0458 42.8798 33.9951 42.807 33.9656C42.7343 33.9361 42.6546 33.9291 42.578 33.9455C42.5013 33.9619 42.4312 34.001 42.3763 34.0578C42.3214 34.1147 42.2843 34.1867 42.2695 34.2649C42.2547 34.3432 42.263 34.4241 42.2933 34.4975C42.3236 34.571 42.3745 34.6337 42.4397 34.6778C42.5049 34.722 42.5815 34.7455 42.6598 34.7455H43.0573V34.3339Z" fill="var(--fill-0, #3D4975)"/>
<path id="Vector_37" d="M25.5838 35.0263H24.4163V34.4471H24.7064V34.7458H25.2937V33.3288H25.5838V35.0263Z" fill="var(--fill-0, #3D4975)"/>
<path id="Vector_38" d="M22.1173 35.0263H18.3571V34.4471H18.6472V34.7458H21.8273V33.3288H22.1173V35.0263Z" fill="var(--fill-0, #3D4975)"/>
<path id="Vector_39" d="M22.4574 33.3322H22.7475V34.7492H24.5381V35.026H22.4574V33.3322Z" fill="var(--fill-0, #3D4975)"/>
<path id="Vector_40" d="M26.3182 35.0255H26.0281V33.339H26.3182V35.0255Z" fill="var(--fill-0, #3D4975)"/>
<path id="Vector_41" d="M24.02 35.026C23.8389 35.026 23.6651 34.9533 23.5363 34.8237C23.4076 34.6941 23.3343 34.5181 23.3324 34.3339C23.3324 34.1484 23.4049 33.9705 23.5338 33.8394C23.6628 33.7082 23.8376 33.6345 24.02 33.6345C24.2024 33.6345 24.3773 33.7082 24.5062 33.8394C24.6352 33.9705 24.7076 34.1484 24.7076 34.3339V35.026H24.02ZM24.4175 34.3339C24.4205 34.2795 24.4124 34.225 24.3936 34.174C24.3748 34.123 24.3458 34.0765 24.3085 34.0374C24.2711 33.9984 24.2262 33.9677 24.1765 33.9472C24.1268 33.9268 24.0736 33.917 24.02 33.9186C23.9666 33.917 23.9135 33.9267 23.864 33.9472C23.8145 33.9677 23.7698 33.9985 23.7327 34.0376C23.6956 34.0767 23.6669 34.1232 23.6486 34.1743C23.6302 34.2253 23.6226 34.2797 23.6261 34.3339C23.6241 34.3876 23.6329 34.4411 23.6519 34.4912C23.6709 34.5413 23.6996 34.587 23.7365 34.6254C23.7733 34.6639 23.8174 34.6944 23.8661 34.715C23.9149 34.7357 23.9672 34.746 24.02 34.7455H24.4175V34.3339Z" fill="var(--fill-0, #3D4975)"/>
<path id="Vector_42" d="M13.3324 35.0263H12.1614V34.4471H12.4694V34.7458H13.0567V33.3288H13.3503L13.3324 35.0263Z" fill="var(--fill-0, #3D4975)"/>
<path id="Vector_43" d="M6.38176 33.3322H6.67184V34.7492H12.2692V35.026H6.38176V33.3322Z" fill="var(--fill-0, #3D4975)"/>
<path id="Vector_44" d="M14.0633 35.0255H13.7732V33.339H14.0633V35.0255Z" fill="var(--fill-0, #3D4975)"/>
<path id="Vector_45" d="M11.7536 35.0252C11.5724 35.0252 11.3986 34.9525 11.2699 34.8229C11.1411 34.6933 11.0679 34.5173 11.066 34.3331C11.0662 34.2393 11.0846 34.1465 11.1201 34.06C11.1556 33.9734 11.2075 33.8949 11.2728 33.8287C11.3382 33.7626 11.4157 33.7102 11.5009 33.6746C11.5862 33.6389 11.6775 33.6207 11.7697 33.6209C11.8619 33.6212 11.9531 33.6399 12.0381 33.676C12.1232 33.7121 12.2005 33.7649 12.2655 33.8313C12.3305 33.8978 12.382 33.9766 12.4171 34.0633C12.4521 34.1501 12.47 34.2429 12.4698 34.3367V35.0288L11.7536 35.0252ZM12.1511 34.3331C12.1535 34.2788 12.145 34.2246 12.1261 34.1738C12.1071 34.123 12.0781 34.0767 12.0408 34.0378C12.0035 33.9989 11.9588 33.9681 11.9094 33.9475C11.86 33.9268 11.807 33.9167 11.7536 33.9178C11.7007 33.9176 11.6485 33.9286 11.6 33.95C11.5515 33.9714 11.5079 34.0027 11.472 34.0421C11.436 34.0814 11.4084 34.1279 11.3909 34.1786C11.3734 34.2293 11.3664 34.2831 11.3704 34.3367C11.3685 34.3893 11.3769 34.4417 11.3953 34.4909C11.4136 34.5401 11.4415 34.585 11.4772 34.623C11.5129 34.6611 11.5558 34.6914 11.6033 34.7123C11.6507 34.7332 11.7018 34.7442 11.7536 34.7447H12.1547L12.1511 34.3331Z" fill="var(--fill-0, #3D4975)"/>
<path id="Vector_46" d="M15.1944 35.026C15.0132 35.026 14.8394 34.9533 14.7107 34.8237C14.5819 34.6941 14.5087 34.5181 14.5068 34.3339C14.5068 34.1484 14.5792 33.9705 14.7082 33.8394C14.8371 33.7082 15.012 33.6345 15.1944 33.6345C15.3767 33.6345 15.5516 33.7082 15.6805 33.8394C15.8095 33.9705 15.8819 34.1484 15.8819 34.3339V35.026H15.1944ZM15.5919 34.3339C15.5943 34.2793 15.5857 34.2248 15.5665 34.1737C15.5474 34.1227 15.518 34.0762 15.4804 34.0373C15.4427 33.9983 15.3976 33.9676 15.3477 33.9472C15.2979 33.9268 15.2445 33.9171 15.1908 33.9186C15.1373 33.9175 15.0843 33.9277 15.035 33.9486C14.9856 33.9695 14.9412 34.0007 14.9044 34.0402C14.8677 34.0796 14.8394 34.1265 14.8215 34.1777C14.8036 34.2289 14.7964 34.2833 14.8004 34.3375C14.798 34.391 14.8063 34.4444 14.8249 34.4945C14.8434 34.5446 14.8719 34.5904 14.9084 34.6289C14.9449 34.6674 14.9888 34.698 15.0374 34.7186C15.0859 34.7393 15.1381 34.7497 15.1908 34.7491H15.5919V34.3339Z" fill="var(--fill-0, #3D4975)"/>
<path id="Vector_47" d="M46.237 35.0246V34.7442H47.7089V34.3362H46.9103V34.0557H48.0026V35.0392L46.237 35.0246Z" fill="var(--fill-0, #3D4975)"/>
<path id="Vector_48" d="M44.6005 35.0259V34.7454H45.417V33.9914H44.6184V33.7109H45.6928V35.0259H44.6005Z" fill="var(--fill-0, #3D4975)"/>
<path id="Vector_49" d="M9.24689 35.0259V34.7454H10.0706V33.9914H9.24689V33.7109H10.3212V35.0259H9.24689Z" fill="var(--fill-0, #3D4975)"/>
<path id="Vector_50" d="M36.6828 35.0259V33.7109H37.7571V33.9951H36.9872V34.7454H37.8108V35.0259H36.6828Z" fill="var(--fill-0, #3D4975)"/>
<path id="Vector_51" d="M17.5874 34.5378V33.7109H18.3466V33.9951H17.8774V34.5378H17.5874Z" fill="var(--fill-0, #3D4975)"/>
<path id="Vector_52" d="M18.3542 35.0259V33.9914H17.8851V33.7109H18.6478V35.0259H18.3542Z" fill="var(--fill-0, #3D4975)"/>
<path id="Vector_53" d="M0.0145089 34.5363H0.293841V34.9917C0.291901 35.0453 0.300683 35.0988 0.319655 35.1489C0.338627 35.1991 0.367396 35.2447 0.40422 35.2832C0.441044 35.3217 0.485159 35.3522 0.533897 35.3728C0.582634 35.3934 0.634981 35.4038 0.687771 35.4033C0.74086 35.4043 0.793597 35.3943 0.842755 35.3739C0.891914 35.3535 0.936461 35.3231 0.97367 35.2846C1.01088 35.246 1.03997 35.2002 1.05916 35.1498C1.07835 35.0995 1.08724 35.0456 1.08528 34.9917V34.5363H1.37536V34.9917C1.37536 35.1772 1.30292 35.3551 1.17397 35.4862C1.04502 35.6174 0.87013 35.6911 0.687771 35.6911C0.505411 35.6911 0.330521 35.6174 0.201574 35.4862C0.0726261 35.3551 0.000184139 35.1772 0.000184139 34.9917L0.0145089 34.5363Z" fill="var(--fill-0, #3D4975)"/>
<path id="Vector_54" d="M1.09887 34.5378V33.7109H1.85808V33.9951H1.38894V34.5378H1.09887Z" fill="var(--fill-0, #3D4975)"/>
<path id="Vector_55" d="M1.86212 35.0259V33.9914H1.39657V33.7109H2.15936V35.0259H1.86212Z" fill="var(--fill-0, #3D4975)"/>
<path id="Vector_56" d="M37.4558 33.7109H37.7459V34.7491H40.9438V33.7109H41.2339V34.7491H43.0567V34.4504H43.3468V35.0296H37.4558V33.7109Z" fill="var(--fill-0, #3D4975)"/>
<path id="Vector_57" d="M46.9097 34.042L47.3216 33.339H47.6474L47.1461 34.1877" fill="var(--fill-0, #3D4975)"/>
<path id="Vector_58" d="M48.2814 33.1816V32.8465H48.5572V32.9193H48.3531V33.1124H48.5643V33.1816H48.2814Z" fill="var(--fill-0, #3D4975)"/>
<path id="Vector_59" d="M48.4187 33.1823H48.2074V33.1131H48.4939" fill="var(--fill-0, #3D4975)"/>
<path id="Vector_60" d="M44.2278 35.4076H43.9377V35.7027H44.2278V35.4076Z" fill="var(--fill-0, #3D4975)"/>
<path id="Vector_61" d="M43.7475 35.4076H43.4574V35.7027H43.7475V35.4076Z" fill="var(--fill-0, #3D4975)"/>
<path id="Vector_62" d="M41.4561 35.4076H41.1696V35.7027H41.4561V35.4076Z" fill="var(--fill-0, #3D4975)"/>
<path id="Vector_63" d="M40.9794 35.4076H40.6893V35.7027H40.9794V35.4076Z" fill="var(--fill-0, #3D4975)"/>
<path id="Vector_64" d="M31.583 35.4076H31.2929V35.7027H31.583V35.4076Z" fill="var(--fill-0, #3D4975)"/>
<path id="Vector_65" d="M31.0929 35.4076H30.8028V35.7027H31.0929V35.4076Z" fill="var(--fill-0, #3D4975)"/>
<path id="Vector_66" d="M17.6061 35.946H17.316V36.241H17.6061V35.946Z" fill="var(--fill-0, #3D4975)"/>
<path id="Vector_67" d="M17.1258 35.946H16.8357V36.241H17.1258V35.946Z" fill="var(--fill-0, #3D4975)"/>
<path id="Vector_68" d="M1.08631 35.946H0.796237V36.241H1.08631V35.946Z" fill="var(--fill-0, #3D4975)"/>
<path id="Vector_69" d="M0.609339 35.946H0.319263V36.241H0.609339V35.946Z" fill="var(--fill-0, #3D4975)"/>
<path id="Vector_70" d="M37.6241 33.0367H37.3341V33.3317H37.6241V33.0367Z" fill="var(--fill-0, #3D4975)"/>
<path id="Vector_71" d="M37.1488 33.0367H36.8587V33.3317H37.1488V33.0367Z" fill="var(--fill-0, #3D4975)"/>
<path id="Vector_72" d="M34.713 33.0367H34.4229V33.3317H34.713V33.0367Z" fill="var(--fill-0, #3D4975)"/>
<path id="Vector_73" d="M34.2332 33.0367H33.9574V33.3317H34.2475L34.2332 33.0367Z" fill="var(--fill-0, #3D4975)"/>
<path id="Vector_74" d="M27.4679 33.3322H27.1778V33.6273H27.4679V33.3322Z" fill="var(--fill-0, #3D4975)"/>
<path id="Vector_75" d="M2.99092 35.4076H2.70084V35.7027H2.99092V35.4076Z" fill="var(--fill-0, #3D4975)"/>
<path id="Vector_76" d="M0.0149881 37.1026H1.06069V37.3758H0.29432V37.7947H0.93177V38.0679H0.29432V38.7636H0.0149881V37.1026Z" fill="var(--fill-0, #3D4975)"/>
<path id="Vector_77" d="M1.23882 37.0858C1.24469 37.0452 1.26475 37.008 1.29532 36.9812C1.32589 36.9543 1.36494 36.9395 1.40534 36.9395C1.44574 36.9395 1.48479 36.9543 1.51536 36.9812C1.54593 37.008 1.56599 37.0452 1.57187 37.0858C1.57538 37.1102 1.57371 37.135 1.56695 37.1586C1.5602 37.1822 1.54852 37.204 1.53272 37.2226C1.51692 37.2413 1.49737 37.2562 1.47538 37.2664C1.4534 37.2766 1.42951 37.2819 1.40534 37.2819C1.38117 37.2819 1.35728 37.2766 1.3353 37.2664C1.31332 37.2562 1.29376 37.2413 1.27796 37.2226C1.26216 37.204 1.25049 37.1822 1.24373 37.1586C1.23698 37.135 1.2353 37.1102 1.23882 37.0858ZM1.2603 37.4501H1.55038V38.7432H1.2603V37.4501Z" fill="var(--fill-0, #3D4975)"/>
<path id="Vector_78" d="M1.86203 37.4618H2.13778V37.6913C2.169 37.6125 2.22307 37.5452 2.29279 37.4983C2.36251 37.4515 2.44459 37.4273 2.52813 37.429C2.59325 37.4264 2.65816 37.4382 2.71833 37.4637C2.77849 37.4892 2.83246 37.5277 2.87646 37.5766C2.92045 37.6256 2.95342 37.6837 2.97305 37.7469C2.99267 37.8101 2.99849 37.8769 2.9901 37.9426V38.7622H2.71793V38.0155C2.71793 37.837 2.63556 37.695 2.44934 37.695C2.4048 37.6955 2.36089 37.7057 2.32057 37.725C2.28025 37.7442 2.24446 37.7721 2.21561 37.8066C2.18676 37.8411 2.16552 37.8815 2.15333 37.9251C2.14114 37.9687 2.13828 38.0144 2.14494 38.0592V38.7877H1.86203V37.4618Z" fill="var(--fill-0, #3D4975)"/>
<path id="Vector_79" d="M3.19837 38.1136C3.19404 38.0265 3.20694 37.9394 3.23632 37.8574C3.26569 37.7755 3.31093 37.7003 3.36937 37.6365C3.42781 37.5726 3.49826 37.5213 3.57653 37.4857C3.65481 37.45 3.73933 37.4307 3.82508 37.4288C3.92487 37.4263 4.02331 37.4527 4.10891 37.505C4.19451 37.5572 4.26375 37.6331 4.30854 37.7239V37.4653H4.59145V38.762H4.31212V38.507C4.26787 38.598 4.19865 38.6739 4.11284 38.7256C4.02703 38.7773 3.92832 38.8026 3.82866 38.7985C3.7426 38.7971 3.6577 38.7781 3.579 38.7427C3.50031 38.7072 3.42944 38.656 3.37062 38.5921C3.3118 38.5282 3.26624 38.4529 3.23664 38.3707C3.20705 38.2885 3.19403 38.2011 3.19837 38.1136ZM4.27272 38.1136C4.2758 38.0596 4.26766 38.0054 4.24882 37.9548C4.22998 37.9041 4.20087 37.858 4.16338 37.8195C4.12589 37.781 4.08085 37.751 4.03121 37.7314C3.98156 37.7118 3.92841 37.703 3.87521 37.7057C3.82434 37.7053 3.77397 37.716 3.72746 37.7369C3.68096 37.7579 3.63937 37.7887 3.60549 37.8273C3.57161 37.8659 3.5462 37.9114 3.53096 37.9608C3.51571 38.0102 3.51099 38.0623 3.5171 38.1136C3.5171 38.218 3.55784 38.318 3.63038 38.3918C3.70291 38.4656 3.80129 38.507 3.90386 38.507C4.00644 38.507 4.10482 38.4656 4.17735 38.3918C4.24988 38.318 4.29063 38.218 4.29063 38.1136H4.27272Z" fill="var(--fill-0, #3D4975)"/>
<path id="Vector_80" d="M4.90925 37.4618H5.185V37.6913C5.21727 37.6125 5.27208 37.5454 5.34232 37.4986C5.41256 37.4518 5.49499 37.4276 5.57893 37.4291C5.64393 37.4263 5.70873 37.4381 5.76876 37.4636C5.82878 37.4891 5.88256 37.5278 5.92629 37.5768C5.97002 37.6258 6.00263 37.6839 6.02182 37.7472C6.041 37.8104 6.04629 37.8771 6.03732 37.9427V38.7623H5.75799V38.0155C5.75799 37.837 5.67204 37.695 5.4894 37.695C5.44455 37.695 5.40024 37.7048 5.35949 37.7239C5.31873 37.7429 5.2825 37.7707 5.25326 37.8052C5.22402 37.8398 5.20246 37.8804 5.19006 37.9243C5.17766 37.9681 5.17471 38.0141 5.18142 38.0592V38.7878H4.89492V37.4873L4.90925 37.4618Z" fill="var(--fill-0, #3D4975)"/>
<path id="Vector_81" d="M6.24525 38.1103C6.24525 38.0196 6.26287 37.9298 6.29711 37.846C6.33135 37.7623 6.38153 37.6862 6.44476 37.6222C6.50799 37.5583 6.58303 37.5076 6.66556 37.4732C6.74809 37.4389 6.83649 37.4214 6.92567 37.4219C7.01827 37.4226 7.10978 37.4423 7.1947 37.4799C7.27963 37.5174 7.35622 37.572 7.41988 37.6404L7.23366 37.8335C7.19448 37.7903 7.14682 37.756 7.09376 37.7328C7.0407 37.7096 6.98343 37.698 6.92567 37.6987C6.81835 37.6987 6.71542 37.7421 6.63953 37.8193C6.56364 37.8965 6.521 38.0012 6.521 38.1103C6.521 38.2195 6.56364 38.3242 6.63953 38.4014C6.71542 38.4786 6.81835 38.522 6.92567 38.522C7.03365 38.5233 7.13782 38.4814 7.21575 38.4054L7.40197 38.5948C7.34019 38.6597 7.26615 38.7112 7.1843 38.7463C7.10245 38.7813 7.01448 38.7992 6.92567 38.7988C6.74583 38.7988 6.5733 38.7264 6.4458 38.5974C6.3183 38.4684 6.2462 38.2933 6.24525 38.1103Z" fill="var(--fill-0, #3D4975)"/>
<path id="Vector_82" d="M7.45578 38.1116C7.45578 37.9241 7.52897 37.7444 7.65926 37.6119C7.78955 37.4793 7.96627 37.4049 8.15053 37.4049C8.33478 37.4049 8.5115 37.4793 8.64179 37.6119C8.77208 37.7444 8.84527 37.9241 8.84527 38.1116C8.84801 38.1431 8.84801 38.1748 8.84527 38.2063H7.77092C7.79013 38.2962 7.83971 38.3764 7.91102 38.4329C7.98233 38.4895 8.07088 38.5188 8.16127 38.5159C8.2308 38.5188 8.29966 38.5011 8.35945 38.4649C8.41923 38.4287 8.46734 38.3755 8.4979 38.3119H8.81662C8.76304 38.4683 8.65744 38.6007 8.51807 38.6862C8.37871 38.7718 8.21433 38.8051 8.05336 38.7805C7.89238 38.7559 7.74492 38.6748 7.63646 38.5513C7.528 38.4279 7.46536 38.2697 7.45936 38.1043L7.45578 38.1116ZM8.53013 37.9914C8.51137 37.9053 8.46256 37.8291 8.39275 37.7768C8.32295 37.7246 8.23689 37.6998 8.15053 37.7072C8.06475 37.7008 7.97955 37.7259 7.91051 37.7781C7.84147 37.8303 7.79319 37.906 7.7745 37.9914H8.53013Z" fill="var(--fill-0, #3D4975)"/>
<path id="Vector_83" d="M9.47222 38.1972C9.47339 38.095 9.50383 37.9955 9.55981 37.9107C9.61579 37.826 9.69488 37.7597 9.78737 37.72C9.75231 37.6893 9.72423 37.6513 9.70506 37.6085C9.68589 37.5658 9.6761 37.5193 9.67635 37.4723C9.68591 37.3684 9.73324 37.2719 9.80908 37.2016C9.88492 37.1313 9.98381 37.0924 10.0864 37.0924C10.189 37.0924 10.2879 37.1313 10.3637 37.2016C10.4396 37.2719 10.4869 37.3684 10.4964 37.4723H10.2279C10.2279 37.4346 10.2131 37.3985 10.1869 37.3718C10.1608 37.3452 10.1252 37.3302 10.0882 37.3302C10.0511 37.3302 10.0156 37.3452 9.98943 37.3718C9.96324 37.3985 9.94852 37.4346 9.94852 37.4723C9.94755 37.4906 9.95025 37.5089 9.95647 37.5261C9.9627 37.5433 9.9723 37.559 9.9847 37.5723C9.99711 37.5856 10.012 37.5962 10.0286 37.6034C10.0452 37.6106 10.063 37.6144 10.081 37.6143H10.1097V37.8875H10.0703C10.0288 37.887 9.98759 37.8951 9.94927 37.9113C9.91095 37.9276 9.87631 37.9516 9.84746 37.982C9.81861 38.0123 9.79618 38.0484 9.78153 38.0879C9.76689 38.1274 9.76034 38.1695 9.7623 38.2117C9.76132 38.2527 9.76852 38.2934 9.78347 38.3314C9.79842 38.3694 9.82081 38.4039 9.84927 38.4329C9.87773 38.4618 9.91168 38.4846 9.94906 38.4998C9.98643 38.515 10.0265 38.5223 10.0667 38.5213C10.1094 38.521 10.1515 38.5117 10.1904 38.4939C10.2294 38.4762 10.2643 38.4504 10.2929 38.4182C10.3215 38.386 10.3432 38.3481 10.3567 38.3069C10.3702 38.2657 10.3751 38.2222 10.3711 38.1789H10.2171V37.9495H10.8008V38.1789H10.654C10.6569 38.2592 10.6438 38.3392 10.6156 38.4143C10.5874 38.4893 10.5446 38.5578 10.4898 38.6156C10.435 38.6734 10.3692 38.7193 10.2965 38.7507C10.2238 38.7821 10.1457 38.7982 10.0667 38.7982C9.90965 38.7982 9.75899 38.735 9.6476 38.6224C9.53622 38.5098 9.47317 38.3569 9.47222 38.1972Z" fill="var(--fill-0, #3D4975)"/>
<path id="Vector_84" d="M11.8644 37.0975H12.1974L12.7812 38.7622H12.4696L12.3801 38.5108H11.6639L11.5743 38.7622H11.2699L11.8644 37.0975ZM12.2906 38.2376L12.0649 37.571C12.0649 37.5273 12.0399 37.4945 12.0291 37.4508C12.0227 37.4912 12.0106 37.5304 11.9933 37.5674L11.7534 38.2376H12.2906Z" fill="var(--fill-0, #3D4975)"/>
<path id="Vector_85" d="M12.8275 38.1103C12.8275 38.0196 12.8451 37.9298 12.8793 37.846C12.9136 37.7623 12.9638 37.6862 13.027 37.6222C13.0902 37.5583 13.1653 37.5076 13.2478 37.4732C13.3303 37.4389 13.4187 37.4214 13.5079 37.4219C13.6005 37.4226 13.692 37.4423 13.7769 37.4799C13.8619 37.5174 13.9385 37.572 14.0021 37.6404L13.8159 37.8335C13.7767 37.7903 13.7291 37.756 13.676 37.7328C13.6229 37.7096 13.5657 37.698 13.5079 37.6987C13.4006 37.6987 13.2977 37.7421 13.2218 37.8193C13.1459 37.8965 13.1032 38.0012 13.1032 38.1103C13.1032 38.2195 13.1459 38.3242 13.2218 38.4014C13.2977 38.4786 13.4006 38.522 13.5079 38.522C13.6159 38.5233 13.7201 38.4814 13.798 38.4054L13.9842 38.5948C13.9224 38.6597 13.8484 38.7112 13.7665 38.7463C13.6847 38.7813 13.5967 38.7992 13.5079 38.7988C13.3281 38.7988 13.1555 38.7264 13.028 38.5974C12.9005 38.4684 12.8284 38.2933 12.8275 38.1103Z" fill="var(--fill-0, #3D4975)"/>
<path id="Vector_86" d="M14.038 38.1103C14.038 38.0196 14.0556 37.9298 14.0899 37.846C14.1241 37.7623 14.1743 37.6862 14.2375 37.6222C14.3008 37.5583 14.3758 37.5076 14.4583 37.4732C14.5409 37.4389 14.6293 37.4214 14.7184 37.4219C14.811 37.4226 14.9025 37.4423 14.9875 37.4799C15.0724 37.5174 15.149 37.572 15.2126 37.6404L15.0264 37.8335C14.9872 37.7903 14.9396 37.756 14.8865 37.7328C14.8335 37.7096 14.7762 37.698 14.7184 37.6987C14.6111 37.6987 14.5082 37.7421 14.4323 37.8193C14.3564 37.8965 14.3138 38.0012 14.3138 38.1103C14.3138 38.2195 14.3564 38.3242 14.4323 38.4014C14.5082 38.4786 14.6111 38.522 14.7184 38.522C14.772 38.523 14.8252 38.5132 14.875 38.4932C14.9248 38.4732 14.9701 38.4434 15.0085 38.4054L15.1947 38.5948C15.133 38.6597 15.0589 38.7112 14.9771 38.7463C14.8952 38.7813 14.8072 38.7992 14.7184 38.7988C14.5386 38.7988 14.3661 38.7264 14.2386 38.5974C14.1111 38.4684 14.039 38.2933 14.038 38.1103Z" fill="var(--fill-0, #3D4975)"/>
<path id="Vector_87" d="M15.2486 38.1176C15.2472 37.9811 15.2856 37.8473 15.3591 37.7332C15.4327 37.619 15.5379 37.5296 15.6614 37.4764C15.7849 37.4232 15.9213 37.4085 16.053 37.4342C16.1848 37.46 16.3061 37.525 16.4014 37.6209C16.4968 37.7169 16.562 37.8396 16.5887 37.9733C16.6154 38.1071 16.6024 38.2459 16.5514 38.3721C16.5004 38.4983 16.4136 38.6063 16.3022 38.6822C16.1907 38.7582 16.0596 38.7988 15.9254 38.7988C15.8369 38.7997 15.749 38.7828 15.6669 38.749C15.5849 38.7152 15.5102 38.6652 15.4472 38.6019C15.3843 38.5385 15.3343 38.4631 15.3002 38.38C15.2661 38.2969 15.2486 38.2077 15.2486 38.1176ZM16.3229 38.1176C16.3215 38.0396 16.2975 37.9637 16.2539 37.8994C16.2104 37.8352 16.1491 37.7854 16.0779 37.7564C16.0067 37.7273 15.9286 37.7203 15.8534 37.7361C15.7783 37.752 15.7094 37.79 15.6554 37.8454C15.6014 37.9009 15.5646 37.9713 15.5497 38.0479C15.5348 38.1244 15.5425 38.2038 15.5717 38.276C15.6009 38.3482 15.6503 38.41 15.7139 38.4537C15.7774 38.4975 15.8523 38.5212 15.929 38.5219C15.9812 38.523 16.033 38.5132 16.0812 38.4931C16.1295 38.4731 16.1733 38.4432 16.2098 38.4053C16.2464 38.3675 16.2749 38.3224 16.2938 38.273C16.3126 38.2235 16.3213 38.1706 16.3194 38.1176H16.3229Z" fill="var(--fill-0, #3D4975)"/>
<path id="Vector_88" d="M16.7847 38.2601V37.466H17.0712V38.2747C17.0695 38.3094 17.0751 38.3442 17.0879 38.3764C17.1006 38.4087 17.1201 38.4378 17.1449 38.4617C17.1698 38.4856 17.1994 38.5038 17.2318 38.5149C17.2642 38.526 17.2986 38.5298 17.3326 38.526C17.3662 38.5293 17.4001 38.5251 17.4319 38.5137C17.4637 38.5023 17.4927 38.484 17.5169 38.4601C17.5411 38.4362 17.5598 38.4073 17.5719 38.3752C17.584 38.3432 17.5891 38.3089 17.5869 38.2747V37.466H17.877V38.2601C17.8659 38.3997 17.8035 38.5299 17.7023 38.6248C17.6011 38.7197 17.4685 38.7724 17.3309 38.7724C17.1932 38.7724 17.0606 38.7197 16.9594 38.6248C16.8582 38.5299 16.7958 38.3997 16.7847 38.2601Z" fill="var(--fill-0, #3D4975)"/>
<path id="Vector_89" d="M18.1524 37.4618H18.4317V37.6913C18.4625 37.6122 18.5165 37.5446 18.5863 37.4977C18.6561 37.4508 18.7384 37.4268 18.8221 37.429C18.8872 37.4264 18.9521 37.4382 19.0123 37.4637C19.0724 37.4892 19.1264 37.5277 19.1704 37.5766C19.2144 37.6256 19.2473 37.6837 19.267 37.7469C19.2866 37.8101 19.2924 37.8769 19.284 37.9426V38.7622H19.0011V38.0155C19.0011 37.837 18.9187 37.695 18.7325 37.695C18.688 37.6955 18.6441 37.7057 18.6038 37.725C18.5634 37.7442 18.5276 37.7721 18.4988 37.8066C18.4699 37.8411 18.4487 37.8815 18.4365 37.9251C18.4243 37.9687 18.4215 38.0144 18.4281 38.0592V38.7877H18.1416V37.4873L18.1524 37.4618Z" fill="var(--fill-0, #3D4975)"/>
<path id="Vector_90" d="M19.6511 37.74H19.4541V37.4668H19.6511V37.1026H19.9376V37.4668H20.1417V37.74H19.9376V38.4904H20.1346V38.7636H19.6332V37.74H19.6511Z" fill="var(--fill-0, #3D4975)"/>
<path id="Vector_91" d="M20.3489 37.087C20.3489 37.0416 20.3666 36.998 20.3982 36.9659C20.4297 36.9338 20.4725 36.9158 20.5172 36.9158C20.5618 36.9158 20.6046 36.9338 20.6362 36.9659C20.6678 36.998 20.6855 37.0416 20.6855 37.087C20.6855 37.1324 20.6678 37.1759 20.6362 37.208C20.6046 37.2401 20.5618 37.2582 20.5172 37.2582C20.4725 37.2582 20.4297 37.2401 20.3982 37.208C20.3666 37.1759 20.3489 37.1324 20.3489 37.087ZM20.3739 37.4512H20.664V38.7444H20.3739V37.4512Z" fill="var(--fill-0, #3D4975)"/>
<path id="Vector_92" d="M20.9717 37.4618H21.2475V37.6913C21.2798 37.6125 21.3346 37.5454 21.4048 37.4986C21.4751 37.4518 21.5575 37.4276 21.6414 37.4291C21.7064 37.4263 21.7712 37.4381 21.8313 37.4636C21.8913 37.4891 21.9451 37.5278 21.9888 37.5768C22.0325 37.6258 22.0651 37.6839 22.0843 37.7472C22.1035 37.8104 22.1088 37.8771 22.0998 37.9427V38.7623H21.8205V38.0155C21.8205 37.837 21.7345 37.695 21.5519 37.695C21.5071 37.695 21.4627 37.7048 21.422 37.7239C21.3812 37.7429 21.345 37.7707 21.3158 37.8052C21.2865 37.8398 21.265 37.8804 21.2526 37.9243C21.2402 37.9681 21.2372 38.0141 21.2439 38.0592V38.7878H20.9574V37.4873L20.9717 37.4618Z" fill="var(--fill-0, #3D4975)"/>
<path id="Vector_93" d="M23.6567 37.4654V39.13H22.5143V38.8532H23.3738V38.4015C23.3255 38.4885 23.2544 38.5601 23.1684 38.6083C23.0824 38.6566 22.9849 38.6795 22.8868 38.6747C22.8087 38.6748 22.7315 38.6587 22.6598 38.6274C22.5881 38.5961 22.5234 38.5502 22.4698 38.4926C22.4161 38.4349 22.3746 38.3668 22.3478 38.2922C22.321 38.2177 22.3094 38.1384 22.3138 38.0591C22.3089 37.979 22.3201 37.8988 22.3466 37.8232C22.3731 37.7477 22.4143 37.6783 22.4679 37.6195C22.5214 37.5606 22.5861 37.5133 22.6581 37.4806C22.7301 37.4478 22.8079 37.4303 22.8868 37.4289C22.9872 37.4257 23.0864 37.4518 23.1727 37.5041C23.259 37.5564 23.3288 37.6327 23.3738 37.724V37.4654H23.6567ZM23.3308 38.0591C23.3308 37.9625 23.2931 37.8698 23.226 37.8015C23.1588 37.7332 23.0677 37.6948 22.9727 37.6948C22.8953 37.7146 22.8266 37.7601 22.7774 37.8241C22.7283 37.8881 22.7017 37.967 22.7017 38.0482C22.7017 38.1294 22.7283 38.2082 22.7774 38.2723C22.8266 38.3363 22.8953 38.3818 22.9727 38.4015C23.0641 38.4017 23.1521 38.3663 23.2186 38.3027C23.2852 38.239 23.3254 38.1519 23.3308 38.0591Z" fill="var(--fill-0, #3D4975)"/>
<path id="Vector_94" d="M24.492 37.1026H25.5341V37.3758H24.7785V37.7947H25.4016V38.0679H24.7785V38.4904H25.5341V38.7636H24.492V37.1026Z" fill="var(--fill-0, #3D4975)"/>
<path id="Vector_95" d="M26.1217 38.0999L25.6991 37.466H26.0572L26.2972 37.8594L26.5335 37.466H26.8916L26.4368 38.0999L26.8809 38.7628H26.5228L26.2793 38.3439L26.0178 38.7592H25.6597L26.1217 38.0999Z" fill="var(--fill-0, #3D4975)"/>
<path id="Vector_96" d="M26.9163 38.1106C26.9163 38.0198 26.9339 37.93 26.9682 37.8462C27.0024 37.7625 27.0526 37.6864 27.1158 37.6224C27.179 37.5585 27.2541 37.5078 27.3366 37.4735C27.4191 37.4391 27.5075 37.4216 27.5967 37.4221C27.6893 37.4228 27.7808 37.4425 27.8658 37.4801C27.9507 37.5176 28.0273 37.5723 28.0909 37.6407L27.9047 37.8337C27.8655 37.7905 27.8179 37.7562 27.7648 37.733C27.7118 37.7098 27.6545 37.6982 27.5967 37.6989C27.4894 37.6989 27.3865 37.7423 27.3106 37.8195C27.2347 37.8967 27.1921 38.0014 27.1921 38.1106C27.1921 38.2197 27.2347 38.3244 27.3106 38.4016C27.3865 38.4788 27.4894 38.5222 27.5967 38.5222C27.6503 38.5232 27.7035 38.5135 27.7533 38.4935C27.803 38.4734 27.8484 38.4436 27.8868 38.4056L28.073 38.595C28.0112 38.6599 27.9372 38.7114 27.8554 38.7465C27.7735 38.7815 27.6855 38.7994 27.5967 38.799C27.4169 38.799 27.2444 38.7266 27.1169 38.5976C26.9894 38.4686 26.9172 38.2935 26.9163 38.1106Z" fill="var(--fill-0, #3D4975)"/>
<path id="Vector_97" d="M28.1729 38.1116C28.1729 37.9241 28.2461 37.7444 28.3764 37.6119C28.5067 37.4793 28.6834 37.4049 28.8676 37.4049C29.0519 37.4049 29.2286 37.4793 29.3589 37.6119C29.4892 37.7444 29.5624 37.9241 29.5624 38.1116C29.5651 38.1431 29.5651 38.1748 29.5624 38.2063H28.488C28.5079 38.2958 28.5576 38.3756 28.6288 38.4321C28.7 38.4885 28.7882 38.5181 28.8784 38.5159C28.9479 38.5188 29.0168 38.5011 29.0766 38.4649C29.1363 38.4287 29.1844 38.3755 29.215 38.3119H29.5337C29.4801 38.4683 29.3745 38.6007 29.2352 38.6862C29.0958 38.7718 28.9314 38.8051 28.7705 38.7805C28.6095 38.7559 28.462 38.6748 28.3536 38.5513C28.2451 38.4279 28.1825 38.2697 28.1765 38.1043L28.1729 38.1116ZM29.2472 37.9914C29.229 37.9092 29.1834 37.836 29.1181 37.7842C29.0528 37.7324 28.9719 37.7052 28.8891 37.7072C28.8028 37.6998 28.7167 37.7246 28.6469 37.7768C28.5771 37.8291 28.5283 37.9053 28.5095 37.9914H29.2472Z" fill="var(--fill-0, #3D4975)"/>
<path id="Vector_98" d="M29.8176 37.1026H30.1041V38.7636H29.8176V37.1026Z" fill="var(--fill-0, #3D4975)"/>
<path id="Vector_99" d="M30.4583 37.1026H30.734V38.7636H30.4476L30.4583 37.1026Z" fill="var(--fill-0, #3D4975)"/>
<path id="Vector_100" d="M31.0035 38.1116C31.0035 37.9241 31.0767 37.7444 31.207 37.6119C31.3373 37.4793 31.514 37.4049 31.6982 37.4049C31.8825 37.4049 32.0592 37.4793 32.1895 37.6119C32.3198 37.7444 32.393 37.9241 32.393 38.1116C32.3957 38.1431 32.3957 38.1748 32.393 38.2063H31.3186C31.3385 38.2958 31.3882 38.3756 31.4594 38.4321C31.5305 38.4885 31.6187 38.5181 31.709 38.5159C31.7785 38.5188 31.8474 38.5011 31.9071 38.4649C31.9669 38.4287 32.015 38.3755 32.0456 38.3119H32.3643C32.3107 38.4683 32.2051 38.6007 32.0658 38.6862C31.9264 38.7718 31.762 38.8051 31.6011 38.7805C31.4401 38.7559 31.2926 38.6748 31.1842 38.5513C31.0757 38.4279 31.0131 38.2697 31.0071 38.1043L31.0035 38.1116ZM32.0778 37.9914C32.0591 37.9053 32.0103 37.8291 31.9405 37.7768C31.8706 37.7246 31.7846 37.6998 31.6982 37.7072C31.6124 37.7008 31.5273 37.7259 31.4582 37.7781C31.3892 37.8303 31.3409 37.906 31.3222 37.9914H32.0778Z" fill="var(--fill-0, #3D4975)"/>
<path id="Vector_101" d="M32.6458 37.4618H32.9251V37.6913C32.9559 37.6122 33.0099 37.5446 33.0797 37.4977C33.1495 37.4508 33.2318 37.4268 33.3155 37.429C33.3806 37.4264 33.4455 37.4382 33.5057 37.4637C33.5658 37.4892 33.6198 37.5277 33.6638 37.5766C33.7078 37.6256 33.7408 37.6837 33.7604 37.7469C33.78 37.8101 33.7858 37.8769 33.7775 37.9426V38.7622H33.4945V38.0155C33.4945 37.837 33.4122 37.695 33.226 37.695C33.1814 37.6955 33.1375 37.7057 33.0972 37.725C33.0569 37.7442 33.0211 37.7721 32.9922 37.8066C32.9634 37.8411 32.9421 37.8815 32.9299 37.9251C32.9178 37.9687 32.9149 38.0144 32.9216 38.0592V38.7877H32.6351V37.4873L32.6458 37.4618Z" fill="var(--fill-0, #3D4975)"/>
<path id="Vector_102" d="M34.0331 38.1103C34.0331 38.0196 34.0507 37.9298 34.0849 37.846C34.1192 37.7623 34.1694 37.6862 34.2326 37.6222C34.2958 37.5583 34.3709 37.5076 34.4534 37.4732C34.5359 37.4389 34.6243 37.4214 34.7135 37.4219C34.8055 37.4229 34.8964 37.4427 34.9807 37.4803C35.065 37.5178 35.141 37.5723 35.2041 37.6404L35.0179 37.8335C34.9794 37.7904 34.9324 37.7561 34.8799 37.7329C34.8274 37.7097 34.7707 37.698 34.7135 37.6987C34.6062 37.6987 34.5032 37.7421 34.4274 37.8193C34.3515 37.8965 34.3088 38.0012 34.3088 38.1103C34.3088 38.2195 34.3515 38.3242 34.4274 38.4014C34.5032 38.4786 34.6062 38.522 34.7135 38.522C34.8215 38.5233 34.9256 38.4814 35.0036 38.4054L35.1898 38.5948C35.1272 38.6596 35.0525 38.7111 34.9701 38.7461C34.8877 38.7812 34.7992 38.7991 34.7099 38.7988C34.621 38.7988 34.533 38.781 34.4509 38.7464C34.3688 38.7118 34.2942 38.6611 34.2313 38.5972C34.1685 38.5332 34.1186 38.4573 34.0846 38.3738C34.0506 38.2903 34.0331 38.2007 34.0331 38.1103Z" fill="var(--fill-0, #3D4975)"/>
<path id="Vector_103" d="M35.2864 38.1116C35.2864 37.9241 35.3596 37.7444 35.4899 37.6119C35.6201 37.4793 35.7969 37.4049 35.9811 37.4049C36.1654 37.4049 36.3421 37.4793 36.4724 37.6119C36.6027 37.7444 36.6759 37.9241 36.6759 38.1116C36.6786 38.1431 36.6786 38.1748 36.6759 38.2063H35.6015C35.62 38.2959 35.6688 38.376 35.7396 38.4326C35.8103 38.4892 35.8983 38.5187 35.9883 38.5159C36.0613 38.5233 36.1349 38.5077 36.1989 38.4713C36.263 38.4348 36.3145 38.3791 36.3464 38.3119H36.6651C36.6115 38.4683 36.5059 38.6007 36.3666 38.6862C36.2272 38.7718 36.0628 38.8051 35.9019 38.7805C35.7409 38.7559 35.5934 38.6748 35.485 38.5513C35.3765 38.4279 35.3139 38.2697 35.3079 38.1043L35.2864 38.1116ZM36.3607 37.9914C36.3425 37.9092 36.2969 37.836 36.2316 37.7842C36.1663 37.7324 36.0854 37.7052 36.0026 37.7072C35.9198 37.7052 35.8389 37.7324 35.7736 37.7842C35.7083 37.836 35.6627 37.9092 35.6445 37.9914H36.3607Z" fill="var(--fill-0, #3D4975)"/>
<path id="Vector_104" d="M37.8964 37.0975H38.2295L38.8132 38.7622H38.5088L38.4193 38.5108H37.703L37.6171 38.7622H37.3127L37.8964 37.0975ZM38.3226 38.2376L38.097 37.571C38.097 37.5273 38.0719 37.4945 38.0611 37.4508C38.0542 37.4907 38.0434 37.5297 38.0289 37.5674L37.8033 38.2376H38.3226Z" fill="var(--fill-0, #3D4975)"/>
<path id="Vector_105" d="M38.9031 38.1103C38.9031 38.0196 38.9208 37.9298 38.955 37.846C38.9892 37.7623 39.0394 37.6862 39.1027 37.6222C39.1659 37.5583 39.2409 37.5076 39.3235 37.4732C39.406 37.4389 39.4944 37.4214 39.5836 37.4219C39.6762 37.4226 39.7677 37.4423 39.8526 37.4799C39.9375 37.5174 40.0141 37.572 40.0778 37.6404L39.8916 37.8335C39.8524 37.7903 39.8047 37.756 39.7517 37.7328C39.6986 37.7096 39.6413 37.698 39.5836 37.6987C39.4762 37.6987 39.3733 37.7421 39.2974 37.8193C39.2215 37.8965 39.1789 38.0012 39.1789 38.1103C39.1789 38.2195 39.2215 38.3242 39.2974 38.4014C39.3733 38.4786 39.4762 38.522 39.5836 38.522C39.6915 38.5233 39.7957 38.4814 39.8736 38.4054L40.0599 38.5948C39.9981 38.6597 39.924 38.7112 39.8422 38.7463C39.7603 38.7813 39.6724 38.7992 39.5836 38.7988C39.4037 38.7988 39.2312 38.7264 39.1037 38.5974C38.9762 38.4684 38.9041 38.2933 38.9031 38.1103Z" fill="var(--fill-0, #3D4975)"/>
<path id="Vector_106" d="M40.1587 38.1137C40.1549 38.0267 40.1681 37.9398 40.1977 37.858C40.2272 37.7763 40.2725 37.7013 40.3309 37.6376C40.3892 37.5738 40.4594 37.5225 40.5375 37.4867C40.6155 37.4509 40.6998 37.4312 40.7854 37.4289C40.8853 37.4259 40.9839 37.4522 41.0696 37.5045C41.1553 37.5568 41.2244 37.6329 41.2689 37.7239V37.4653H41.5518V38.7621H41.2689V38.5071C41.2246 38.598 41.1554 38.674 41.0696 38.7257C40.9838 38.7774 40.8851 38.8027 40.7854 38.7985C40.6998 38.7962 40.6155 38.7765 40.5375 38.7407C40.4594 38.7049 40.3892 38.6536 40.3309 38.5898C40.2725 38.5261 40.2272 38.4511 40.1977 38.3694C40.1681 38.2876 40.1549 38.2007 40.1587 38.1137ZM41.2331 38.1137C41.2361 38.0603 41.2281 38.0068 41.2097 37.9566C41.1913 37.9065 41.1628 37.8607 41.1261 37.8224C41.0894 37.784 41.0453 37.7538 40.9965 37.7338C40.9477 37.7137 40.8953 37.7041 40.8427 37.7057C40.7898 37.7015 40.7366 37.7094 40.687 37.7287C40.6374 37.748 40.5927 37.7782 40.556 37.8173C40.5193 37.8563 40.4916 37.9032 40.475 37.9544C40.4583 38.0057 40.453 38.0601 40.4595 38.1137C40.4595 38.218 40.5003 38.3181 40.5728 38.3919C40.6454 38.4657 40.7437 38.5071 40.8463 38.5071C40.9489 38.5071 41.0473 38.4657 41.1198 38.3919C41.1923 38.3181 41.2331 38.218 41.2331 38.1137Z" fill="var(--fill-0, #3D4975)"/>
<path id="Vector_107" d="M41.8351 38.1138C41.8303 38.0277 41.8424 37.9415 41.8707 37.8603C41.899 37.7791 41.9429 37.7044 42 37.6406C42.057 37.5768 42.1259 37.5253 42.2028 37.4889C42.2796 37.4526 42.3628 37.4322 42.4475 37.429C42.5482 37.4264 42.6477 37.4527 42.7344 37.5048C42.8212 37.557 42.8918 37.633 42.9381 37.724V37.0975H43.2246V38.7622H42.9453V38.5072C42.8974 38.598 42.8253 38.6732 42.7372 38.7241C42.6491 38.7751 42.5487 38.7996 42.4475 38.7949C42.363 38.7922 42.2798 38.7722 42.203 38.7363C42.1262 38.7003 42.0572 38.6491 42.0002 38.5856C41.9431 38.5222 41.8991 38.4477 41.8707 38.3667C41.8424 38.2856 41.8303 38.1996 41.8351 38.1138ZM42.9095 38.1138C42.9124 38.0606 42.9046 38.0075 42.8864 37.9576C42.8682 37.9077 42.84 37.8621 42.8037 37.8238C42.7674 37.7855 42.7237 37.7553 42.6753 37.7349C42.627 37.7146 42.575 37.7047 42.5227 37.7058C42.4702 37.7042 42.418 37.7137 42.3694 37.7338C42.3208 37.7539 42.2768 37.7842 42.2404 37.8226C42.204 37.861 42.1759 37.9068 42.1579 37.9569C42.1399 38.0071 42.1324 38.0605 42.1359 38.1138C42.1359 38.2181 42.1767 38.3182 42.2492 38.392C42.3217 38.4657 42.4201 38.5072 42.5227 38.5072C42.6253 38.5072 42.7236 38.4657 42.7962 38.392C42.8687 38.3182 42.9095 38.2181 42.9095 38.1138Z" fill="var(--fill-0, #3D4975)"/>
<path id="Vector_108" d="M43.4755 38.1116C43.4755 37.9241 43.5487 37.7444 43.679 37.6119C43.8093 37.4793 43.986 37.4049 44.1703 37.4049C44.3545 37.4049 44.5312 37.4793 44.6615 37.6119C44.7918 37.7444 44.865 37.9241 44.865 38.1116C44.8677 38.1431 44.8677 38.1748 44.865 38.2063H43.7907C43.8105 38.2958 43.8602 38.3756 43.9314 38.4321C44.0026 38.4885 44.0908 38.5181 44.181 38.5159C44.2541 38.5233 44.3276 38.5077 44.3916 38.4713C44.4557 38.4348 44.5072 38.3791 44.5391 38.3119H44.8578C44.8043 38.4683 44.6987 38.6007 44.5593 38.6862C44.4199 38.7718 44.2555 38.8051 44.0946 38.7805C43.9336 38.7559 43.7861 38.6748 43.6777 38.5513C43.5692 38.4279 43.5066 38.2697 43.5006 38.1043L43.4755 38.1116ZM44.5499 37.9914C44.5311 37.9053 44.4823 37.8291 44.4125 37.7768C44.3427 37.7246 44.2566 37.6998 44.1703 37.7072C44.0875 37.7052 44.0065 37.7324 43.9413 37.7842C43.876 37.836 43.8303 37.9092 43.8121 37.9914H44.5499Z" fill="var(--fill-0, #3D4975)"/>
<path id="Vector_109" d="M47.1248 37.947V38.7629H46.8491V38.0344C46.8491 37.8341 46.7596 37.7138 46.5805 37.7138C46.5354 37.7133 46.4906 37.7228 46.4494 37.7416C46.4083 37.7604 46.3716 37.7881 46.3419 37.8227C46.3123 37.8574 46.2904 37.8982 46.2778 37.9423C46.2652 37.9863 46.2622 38.0327 46.2689 38.0781V38.8066H45.9896V38.0781C45.9896 37.8996 45.9072 37.7576 45.721 37.7576C45.6762 37.7576 45.6319 37.7674 45.5911 37.7865C45.5504 37.8055 45.5141 37.8332 45.4849 37.8678C45.4556 37.9024 45.4341 37.943 45.4217 37.9868C45.4093 38.0307 45.4063 38.0767 45.413 38.1218V38.8503H45.1301V37.5499H45.4059V37.7794C45.441 37.7002 45.4979 37.633 45.5697 37.5859C45.6415 37.5388 45.7251 37.5137 45.8105 37.5137C45.896 37.5137 45.9796 37.5388 46.0514 37.5859C46.1232 37.633 46.18 37.7002 46.2152 37.7794H46.2403C46.287 37.679 46.367 37.5985 46.4662 37.552C46.5654 37.5055 46.6775 37.4959 46.783 37.525C46.8884 37.5541 46.9804 37.62 47.0429 37.7111C47.1054 37.8022 47.1344 37.9128 47.1248 38.0235V37.947Z" fill="var(--fill-0, #3D4975)"/>
<path id="Vector_110" d="M47.7798 38.569L47.2749 37.4762H47.59L47.9481 38.2412L48.2633 37.4762H48.5748L47.8371 39.1445H47.522L47.7798 38.569Z" fill="var(--fill-0, #3D4975)"/>
</g>
</svg>
